<?xml version="1.0" encoding="utf-8"?>
<!-- Generator: Adobe Illustrator 24.2.1, SVG Export Plug-In . SVG Version: 6.00 Build 0)  -->
<svg version="1.1" id="レイヤー_1" xmlns="http://www.w3.org/2000/svg" xmlns:xlink="http://www.w3.org/1999/xlink" x="0px"
	 y="0px" viewBox="0 0 785 440" style="enable-background:new 0 0 785 440;" xml:space="preserve">
<style type="text/css">
	.st0{clip-path:url(#SVGID_2_);}
	.st1{opacity:0.5;fill:#BBAE97;}
	.st2{opacity:0.4;fill:#645043;}
	.st3{opacity:0.6;fill:#532D27;}
	.st4{fill:#695358;}
	.st5{fill:#040000;}
	.st6{clip-path:url(#SVGID_4_);}
	.st7{fill:#FFFFFF;}
	.st8{clip-path:url(#SVGID_6_);}
	.st9{clip-path:url(#SVGID_8_);fill:none;stroke:#5D5E5E;stroke-width:3.2882;}
	.st10{clip-path:url(#SVGID_10_);fill:none;stroke:#5D5E5E;stroke-width:3.2882;}
	.st11{clip-path:url(#SVGID_12_);}
	.st12{clip-path:url(#SVGID_14_);fill:none;stroke:#5D5E5E;stroke-width:3.2882;}
	.st13{clip-path:url(#SVGID_16_);}
	.st14{clip-path:url(#SVGID_18_);}
	.st15{clip-path:url(#SVGID_20_);}
	.st16{clip-path:url(#SVGID_22_);fill:none;stroke:#5D5E5E;stroke-width:1.0961;}
	.st17{clip-path:url(#SVGID_24_);fill:none;stroke:#5D5E5E;stroke-width:1.0961;}
	.st18{clip-path:url(#SVGID_26_);}
	.st19{clip-path:url(#SVGID_28_);fill:none;stroke:#5D5E5E;stroke-width:1.0961;}
	.st20{clip-path:url(#SVGID_30_);}
	.st21{clip-path:url(#SVGID_32_);fill:none;stroke:#5D5E5E;stroke-width:3.2882;}
	.st22{clip-path:url(#SVGID_34_);fill:none;stroke:#5D5E5E;stroke-width:3.2882;}
	.st23{clip-path:url(#SVGID_36_);fill:none;stroke:#5D5E5E;stroke-width:3.2882;}
	.st24{clip-path:url(#SVGID_38_);}
</style>
<g>
	<defs>
		<rect id="SVGID_1_" x="-0.12" y="0.01" width="785.88" height="439.52"/>
	</defs>
	<clipPath id="SVGID_2_">
		<use xlink:href="#SVGID_1_"  style="overflow:visible;"/>
	</clipPath>
	<g class="st0">
		<g>
			<rect x="23.45" y="135.11" class="st1" width="152.56" height="152.56"/>
			<rect x="247.92" y="135.11" class="st2" width="152.56" height="152.56"/>
			<rect x="474.1" y="192.69" class="st3" width="94.99" height="94.99"/>
			<rect x="642.71" y="192.69" class="st4" width="94.99" height="94.99"/>
			<polygon class="st5" points="231.83,211.4 201.87,226.38 201.87,196.42 			"/>
			<polygon class="st5" points="453.88,211.4 423.93,226.38 423.93,196.42 			"/>
			<polygon class="st5" points="619.27,233.47 589.32,248.45 589.32,218.49 			"/>
		</g>
		<g>
			<defs>
				<rect id="SVGID_3_" x="632.16" y="192.68" width="116.1" height="100.84"/>
			</defs>
			<clipPath id="SVGID_4_">
				<use xlink:href="#SVGID_3_"  style="overflow:visible;"/>
			</clipPath>
			<g class="st6">
				<path class="st7" d="M703.89,248.9h-5.68v9.79h-5.13v-9.79h-17.44v-5.21l19.26-25.17h3.31v25.57h5.68V248.9z M693.08,244.08
					v-19.41l-14.84,19.41H693.08z"/>
			</g>
		</g>
		<g>
			<defs>
				<rect id="SVGID_5_" x="-125.07" y="-187.42" width="1122.38" height="841.78"/>
			</defs>
			<clipPath id="SVGID_6_">
				<use xlink:href="#SVGID_5_"  style="overflow:visible;"/>
			</clipPath>
			<g class="st8">
				<path class="st5" d="M38.37,43.69c-0.28,1.66-0.58,2.92-1.1,4.51c-0.89-0.68-1.6-1.01-2.67-1.38c0.95-2.49,1.56-6.08,1.56-9.11
					c0-0.18-0.03-0.4-0.06-0.77l3.01,0.37c-0.12,0.55-0.12,0.61-0.18,1.56l-0.06,0.46l-0.09,1.26h1.41v-3.62
					c0-0.92-0.06-1.69-0.21-2.52h3.62c-0.12,0.8-0.18,1.5-0.18,2.52v3.62h0.25c1.1,0,1.78-0.06,2.46-0.18v3.22
					c0.95,0.06,1.72,0.09,2.82,0.09h3.5v-2.98h-2.58c-1.26,0-2.24,0.06-3.16,0.15v-3.34c0.89,0.12,1.78,0.18,3.16,0.18h2.58v-0.95
					c0-0.89-0.06-1.53-0.18-2.3h3.56c-0.12,0.71-0.15,1.35-0.15,2.27v0.98h3.31c1.38,0,2.3-0.06,3.22-0.18v3.34
					c-0.92-0.09-1.9-0.15-3.22-0.15h-3.31v2.98h4.14c1.53,0,2.67-0.06,3.47-0.15v3.31c-0.95-0.12-2.09-0.18-3.22-0.18h-0.18v2.58
					h0.28c1.47,0,2.24-0.03,3.01-0.15v3.38c-0.95-0.12-1.78-0.18-3.01-0.18h-0.28v7.33c0,2.3-0.98,2.92-4.54,2.92
					c-0.52,0-1.66-0.03-2.61-0.09c-0.09-1.41-0.34-2.33-0.8-3.38c1.75,0.25,2.76,0.34,3.59,0.34c0.98,0,1.17-0.15,1.17-0.92v-6.2
					h-8.04c-1.29,0-2.03,0.03-3.01,0.18v-1.41c-0.86,0.4-1.41,0.64-2.21,0.98v7.3c0,1.35,0.06,2.52,0.18,3.56h-3.62
					c0.12-0.71,0.21-2.18,0.21-3.56v-6.11c-0.74,0.28-1.41,0.52-2.06,0.74c-1.63,0.58-1.99,0.74-2.33,0.89l-0.77-3.5
					c1.1-0.12,2.33-0.46,5.16-1.38v-6.32H38.37z M43.4,48.91c1.2-0.46,1.6-0.61,2.64-1.07l0.03,1.35c0.71,0.06,1.6,0.09,2.95,0.09
					h7.64V46.7h-7.73c-1.63,0-2.55,0.03-3.47,0.18v-3.16c-0.68-0.03-1.07-0.03-1.56-0.03H43.4V48.91z M49.48,52.47
					c1.56,1.44,2.73,2.79,4.02,4.69l-2.67,2.03c-1.23-2.06-2.12-3.22-3.9-5.03L49.48,52.47z"/>
				<path class="st5" d="M65.62,39.46c0.74,0.12,1.32,0.15,2.45,0.15h6.54c1.23,0,1.81-0.03,2.45-0.12v3.13
					c-0.64-0.06-1.01-0.09-2.33-0.09h-6.66c-1.1,0-1.69,0.03-2.45,0.12V39.46z M66.7,35.16c0.83,0.12,1.32,0.15,2.55,0.15h4.51
					c1.23,0,1.72-0.03,2.55-0.15v2.98c-0.74-0.09-1.44-0.12-2.55-0.12h-4.51c-1.1,0-1.78,0.03-2.55,0.12V35.16z M66.7,62.75
					c0.09-0.89,0.15-1.9,0.15-2.98V55.2c0-0.98-0.03-1.6-0.12-2.46c0.74,0.09,1.41,0.12,2.33,0.12h5.31c1.2,0,1.56,0,2.12-0.09
					c-0.06,0.64-0.09,1.29-0.09,2.24v4.82c0,0.86,0.03,1.63,0.15,2.52h-3.1v-1.04H69.8v1.44H66.7z M66.79,44.12
					c0.64,0.06,1.01,0.09,2.02,0.09h5.58c1.01,0,1.32,0,1.96-0.09v2.88c-0.64-0.06-0.98-0.09-1.96-0.09h-5.58
					c-0.98,0-1.41,0.03-2.02,0.09V44.12z M66.79,48.45c0.64,0.06,1.01,0.09,2.02,0.09h5.55c1.04,0,1.35,0,1.99-0.09v2.88
					c-0.64-0.06-1.04-0.09-2.03-0.09h-5.55c-0.98,0-1.29,0-1.99,0.09V48.45z M69.8,58.61h3.65v-3.07H69.8V58.61z M87.38,47.56h3.41
					c1.38,0,2.42-0.06,3.34-0.18v3.44c-0.95-0.12-2.06-0.18-3.34-0.18h-3.41v8.47c0,1.53,0.06,2.67,0.21,3.77h-3.81
					c0.15-1.2,0.21-2.3,0.21-3.77v-8.47h-3.34c-1.29,0-2.27,0.06-3.34,0.18v-3.44c0.8,0.12,1.72,0.18,2.85,0.18H84v-5.95h-2.3
					c-0.92,1.81-1.47,2.67-2.85,4.45c-0.98-1.14-1.56-1.63-2.67-2.33c1.53-1.35,2.92-3.65,3.87-6.41c0.46-1.26,0.74-2.36,0.83-3.16
					l3.53,0.74c-0.15,0.4-0.15,0.4-0.46,1.23c-0.18,0.49-0.28,0.8-0.92,2.46h7.12c1.38,0,2.39-0.06,3.31-0.18v3.38
					c-0.92-0.09-1.84-0.15-3.28-0.15h-2.79V47.56z"/>
				<path class="st5" d="M99.29,43.17c-0.77,0-1.32,0.03-2.36,0.15v-3.31c0.74,0.12,1.41,0.18,2.39,0.18h1.26v-2.52
					c0-1.38-0.06-2.18-0.18-3.13h3.65c-0.15,0.95-0.18,1.75-0.18,3.1v2.55h0.49c0.67,0,1.2-0.03,1.84-0.12v3.22
					c-0.67-0.09-1.2-0.12-1.87-0.12h-0.46v4.69c0.92-0.34,1.29-0.46,2.58-0.95v3.04c-1.6,0.61-1.6,0.61-2.58,1.01v8.71
					c0,2.46-0.8,3.04-4.05,3.04c-0.74,0-1.23-0.03-2.18-0.09c-0.09-1.23-0.28-2.06-0.74-3.19c0.89,0.15,1.81,0.25,2.49,0.25
					c1.01,0,1.2-0.12,1.2-0.95v-6.57c-0.37,0.15-0.64,0.25-0.83,0.31c-0.58,0.21-0.58,0.21-1.04,0.34
					c-0.43,0.15-0.95,0.34-1.29,0.49l-0.68-3.41c1.07-0.12,1.63-0.28,3.84-0.92v-5.8H99.29z M113.22,41.64h-2.88
					c-1.41,0-2.64,0.06-3.53,0.15v-3.34c0.86,0.09,1.93,0.15,3.5,0.15h2.92v-0.92c0-1.47-0.03-2.15-0.18-3.1h3.65
					c-0.12,0.98-0.15,1.63-0.15,3.07v0.95h4.27c1.38,0,2.52-0.06,3.5-0.18v3.41c-0.95-0.12-2.36-0.18-3.5-0.18h-4.27v3.93h2.88
					c0.95,0,1.66-0.03,2.21-0.12l1.63,1.75c-0.25,0.4-0.37,0.64-0.95,1.81c-1.35,2.67-2.73,4.6-4.79,6.75
					c2.21,1.66,4.51,2.76,7.73,3.77c-0.98,1.26-1.5,2.18-1.9,3.34c-3.38-1.41-5.8-2.85-8.29-4.94c-2.88,2.3-5.71,3.84-8.9,4.85
					c-0.4-1.1-0.98-2.18-1.72-3.16c3.31-0.92,5.71-2.06,8.32-3.96c-1.96-2.24-3.16-4.2-4.33-7.12c-0.49,0.03-0.68,0.03-1.23,0.09
					v-3.25c0.89,0.12,1.99,0.18,3.1,0.18h2.92V41.64z M111.81,48.51c0.74,1.87,1.93,3.71,3.34,5.16c1.78-1.66,2.73-2.98,3.84-5.16
					H111.81z"/>
				<path class="st5" d="M139.58,37.99c0-1.53-0.03-2.3-0.18-3.34h3.47c-0.15,1.04-0.18,1.78-0.18,3.34v2.58h1.41
					c1.35,0,1.96-0.03,2.79-0.15v2.46c0.52,0.06,0.8,0.06,1.53,0.06h4.63c1.23,0,1.81-0.03,2.52-0.15v3.41
					c-0.77-0.09-1.17-0.12-2.61-0.12v13.13c0,1.63-0.4,2.45-1.41,2.85c-0.52,0.18-1.63,0.31-3.16,0.31c-0.58,0-0.95,0-2.46-0.06
					c-0.09-1.32-0.28-2.18-0.71-3.22c1.35,0.18,2.42,0.28,3.62,0.28c0.77,0,0.98-0.15,0.98-0.71V46.06h-1.41
					c-0.92,0-1.38,0.03-1.96,0.12v-2.49c-0.52-0.03-0.92-0.06-1.63-0.06h-2.15v15.34c0,1.75,0.03,2.58,0.18,3.68h-3.47
					c0.15-1.17,0.18-1.99,0.18-3.68V43.63h-2.7c-0.89,0-1.32,0.03-1.93,0.12c-0.83,1.38-1.53,2.42-2.06,3.16v12.3
					c0,1.69,0.03,2.58,0.15,3.47h-3.47c0.12-0.98,0.18-1.87,0.18-3.56v-5.68c0-1.23,0-1.26,0.06-3.34
					c-0.55,0.71-1.32,1.47-2.06,2.03c-0.4-1.72-0.61-2.27-1.2-3.38c1.75-1.26,3.19-2.79,4.57-4.88c0.74-1.07,1.32-2.09,1.53-2.76
					l2.21,1.32v-2.03c0.86,0.12,1.41,0.15,2.79,0.15h1.9V37.99z M135.26,35.99c-0.12,0.15-0.64,0.8-1.6,1.99
					c-1.44,1.81-2.95,3.19-5.37,4.94c-0.43-1.1-0.77-1.81-1.5-2.92c2.49-1.56,4.57-3.74,5.55-5.71L135.26,35.99z M138.39,45.93
					c-0.4,6.9-0.95,10.31-2.15,13.66c-0.86-0.55-1.44-0.89-2.79-1.56c0.8-1.75,1.23-3.19,1.53-5.12c0.31-1.87,0.55-4.73,0.61-7.36
					L138.39,45.93z M145.35,40.07c-0.86-1.75-1.17-2.21-2.45-3.84l2.33-1.38c0.98,1.14,1.5,1.84,2.24,3.07v-1.81
					c0.68,0.12,1.38,0.15,2.39,0.15h2.82c1.07,0,1.78-0.03,2.39-0.15v3.44c-0.74-0.12-1.38-0.15-2.39-0.15h-2.82
					c-0.92,0-1.66,0.03-2.39,0.15v-0.8L145.35,40.07z M145.97,45.5c0.95,3.41,1.66,6.81,2.24,10.8l-2.85,0.95
					c-0.52-4.69-1.14-8.1-1.99-11.11L145.97,45.5z"/>
				<path class="st5" d="M176.96,50.5V34.27h9.18v3.34h-5.52V50.5H176.96z"/>
				<path class="st5" d="M214.28,37.83c-0.52,0.46-0.68,0.58-1.14,1.07c-2.3,2.39-4.6,4.39-7.24,6.32v13.1
					c0,1.69,0.03,2.58,0.15,3.41h-4.3c0.15-0.89,0.18-1.5,0.18-3.31v-10.8c-3.59,2.15-5.31,2.95-10.95,4.97
					c-0.64-1.6-0.98-2.12-2.06-3.5c6.08-1.66,11.23-4.2,16.11-7.98c2.73-2.12,4.82-4.23,5.71-5.74L214.28,37.83z"/>
				<path class="st5" d="M221.68,56.61c2.64-0.15,6.29-1.04,9.08-2.27c3.84-1.66,6.69-4.02,9.11-7.52c1.35-1.96,2.21-3.65,3.13-6.14
					c1.2,1.44,1.69,1.9,3.25,3.01c-2.61,5.62-5.52,9.24-9.73,12.03c-3.13,2.09-6.94,3.59-11.69,4.6c-1.23,0.25-1.32,0.28-2.03,0.52
					L221.68,56.61z M224.29,37.56c3.65,2.27,5.55,3.68,7.92,5.92l-2.64,3.34c-2.45-2.61-4.97-4.63-7.82-6.23L224.29,37.56z"/>
				<path class="st5" d="M275.78,42.16c-0.25,0.55-0.31,0.98-0.34,2.06c-0.09,3.47-0.43,8.19-0.74,10.22
					c-0.8,5.31-1.87,6.57-5.55,6.57c-1.17,0-2.21-0.09-3.81-0.34c-0.06-1.93-0.15-2.52-0.71-3.93c1.81,0.49,3.04,0.71,4.05,0.71
					c1.32,0,1.78-0.68,2.27-3.34c0.37-2.12,0.67-6.29,0.67-9.82l-7.15,0.03c-0.43,3.84-1.07,6.14-2.46,8.78
					c-1.69,3.25-4.42,6.04-8.29,8.5c-1.04-1.63-1.47-2.12-2.76-3.25c3.84-2.03,6.35-4.45,7.98-7.73c0.83-1.69,1.29-3.19,1.56-5.34
					c0.06-0.43,0.12-0.74,0.15-0.95l-5.09,0.03c-1.87,0-2.3,0.03-3.31,0.15l-0.03-3.77c1.04,0.18,1.87,0.25,3.41,0.25l5.37-0.03
					c0.09-1.17,0.15-2.95,0.15-3.84v-0.77c0-0.4,0-0.64-0.09-1.2l4.11,0.09c-0.06,0.4-0.09,0.52-0.12,0.95
					c0,0.18-0.03,0.37-0.03,0.58c-0.06,0.64-0.06,0.64-0.12,2.24c-0.03,0.68-0.03,0.95-0.12,1.93l6.81-0.03
					c1.38,0,1.66-0.03,2.42-0.28L275.78,42.16z"/>
				<path class="st5" d="M306.78,45.47c-0.31,0.55-0.49,0.98-0.86,1.93c-1.6,4.51-3.93,7.92-7.12,10.37
					c-2.18,1.69-4.17,2.73-8.04,4.17c-0.68-1.53-1.04-2.06-2.39-3.56c3.74-0.95,6.17-2.09,8.53-4.05c2.27-1.9,3.59-3.77,4.94-7.18
					H286.9c-2.06,0-2.82,0.03-3.93,0.15v-3.74c1.17,0.18,1.84,0.21,3.99,0.21h14.61c1.9,0,2.52-0.06,3.47-0.28L306.78,45.47z
					 M285.58,36.17c1.01,0.18,1.66,0.21,3.59,0.21h10.71c1.93,0,2.58-0.03,3.59-0.21v3.77c-0.95-0.12-1.53-0.15-3.53-0.15h-10.83
					c-1.99,0-2.58,0.03-3.53,0.15V36.17z"/>
				<path class="st5" d="M315.35,52.87c7.43,0.98,13.23,2.36,20.38,4.85l-1.32,3.87c-3.19-1.41-6.01-2.3-10.86-3.44
					c-3.77-0.89-6.29-1.35-9.64-1.78L315.35,52.87z M317.8,44.21c4.91,0.61,9.82,1.72,15.99,3.56l-1.2,3.77
					c-2.42-0.95-4.6-1.6-8.44-2.46c-2.61-0.61-4.6-0.95-7.76-1.35L317.8,44.21z M318.26,35.75c5.92,0.71,9.76,1.47,16.6,3.31
					l-1.23,3.77c-5.06-1.69-11.35-3.01-16.75-3.53L318.26,35.75z"/>
			</g>
			<g class="st8">
				<path class="st5" d="M361.54,46.76v16.23h-9.17v-3.34h5.52V46.76H361.54z"/>
			</g>
			<g class="st8">
				<path class="st5" d="M399.68,44.25v-6.87l11.48,11.26l-11.48,11.26v-6.87h-16.02v-8.78H399.68z"/>
			</g>
			<g class="st8">
				<path class="st5" d="M434.26,40.01c-2.85,0.46-4.2,0.61-8.96,1.17c-0.28-0.95-0.46-1.38-0.95-2.27
					c8.16-0.31,17.06-2.15,21.11-4.36l1.69,2.15c-0.83,0.25-1.17,0.34-1.99,0.61c-3.07,1.04-5.37,1.63-8.53,2.27v4.39l8.87-0.95
					c1.84-0.18,2.42-0.28,3.22-0.49l0.18,2.52c-0.28-0.03-0.46-0.03-0.58-0.03c-0.55,0-1.72,0.06-2.64,0.18l-9.05,0.95v4.3
					l10.59-0.95c1.72-0.15,2.36-0.25,3.22-0.46l0.18,2.58c-0.4-0.03-0.61-0.03-0.86-0.03c-0.61,0-1.47,0.03-2.39,0.12l-10.74,0.98
					v5.62c0,1.23,0.64,1.41,5.37,1.41c3.31,0,5-0.15,5.65-0.46c0.67-0.34,0.86-1.38,0.89-4.76c1.01,0.52,1.14,0.55,2.3,0.83
					c-0.12,3.38-0.55,4.97-1.47,5.68c-0.92,0.68-3.1,0.92-8.68,0.92c-3.25,0-4.88-0.28-5.71-0.95c-0.49-0.4-0.71-1.07-0.71-2.24
					V52.9l-7.24,0.67c-1.44,0.12-2.79,0.31-3.22,0.43l-0.21-2.58c0.31,0.03,0.43,0.03,0.58,0.03c0.49,0,1.84-0.09,2.67-0.15
					l7.43-0.64v-4.27l-5.95,0.64c-1.87,0.18-2.46,0.28-3.28,0.46l-0.15-2.52c0.31,0.03,0.52,0.03,0.61,0.03
					c0.64,0,1.72-0.06,2.61-0.15l6.17-0.64V40.01z"/>
				<path class="st5" d="M476.79,55.38c-0.18,0.15-0.18,0.15-0.8,0.71c-1.1,1.01-3.04,2.36-4.42,3.16
					c2.64,0.71,5.98,1.07,10.62,1.17c-0.4,0.68-0.83,1.53-1.1,2.3c-3.38-0.31-3.99-0.37-5.77-0.68c-2.61-0.4-4.2-0.83-6.17-1.63
					c-2.85,1.2-5.25,1.84-8.99,2.39c-0.37-0.74-0.64-1.2-1.23-1.93c2.79-0.18,5.16-0.68,7.86-1.63c-1.63-0.95-2.36-1.5-3.77-2.92
					c-1.84,2.55-4.02,4.48-7.24,6.41c-0.46-0.68-0.86-1.07-1.69-1.75c4.45-2.36,6.78-4.57,8.68-8.25h-5.06
					c-1.29,0-2.21,0.06-3.16,0.18v-2.24c0.77,0.12,1.75,0.18,3.16,0.18h5.86c0.21-0.74,0.31-1.01,0.46-1.81l2.49,0.31
					c-0.09,0.21-0.31,0.71-0.61,1.5h12.83c1.47,0,2.36-0.06,3.13-0.18v2.24c-0.95-0.12-1.87-0.18-3.13-0.18H465.1
					c-0.31,0.64-0.43,0.92-0.77,1.5h8.53c1.29,0,2.06-0.03,2.73-0.15L476.79,55.38z M467.03,43.2c1.38,0,1.87-0.03,2.55-0.12v1.87
					c-0.8-0.09-1.2-0.12-2.55-0.12h-5.71c-0.52,0.98-0.92,1.69-1.38,2.45c2.36-0.15,3.53-0.28,5.22-0.52
					c-0.4-0.46-0.55-0.61-1.04-1.1l1.66-0.8c1.2,1.17,2.15,2.27,3.25,3.77l-1.69,1.07c-0.43-0.74-0.58-0.98-0.98-1.5
					c-1.6,0.28-7.33,0.89-9.6,1.01c-0.43,0.03-1.07,0.12-1.41,0.18l-0.25-1.99c0.34,0.03,0.68,0.06,1.01,0.06
					c0.18,0,0.98-0.03,1.47-0.06c0.67-1.07,1.04-1.78,1.44-2.58h-1.81c-1.32,0-1.81,0.03-2.64,0.15v-1.93
					c0.74,0.12,1.32,0.15,2.52,0.15h0.21v-5.58c0-1.07-0.03-1.81-0.12-2.55c0.86,0.09,1.5,0.12,2.7,0.12h5.74
					c1.26,0,2.06-0.06,2.98-0.18v1.93c-0.8-0.12-1.47-0.15-2.82-0.15h-6.38v1.14h6.23c1.2,0,1.6-0.03,2.24-0.12v1.69
					c-0.61-0.06-1.07-0.09-2.24-0.09h-6.23v1.14h6.23c1.23,0,1.69-0.03,2.24-0.09v1.69c-0.64-0.06-1.04-0.09-2.24-0.09h-6.23v1.17
					H467.03z M465.16,55.91c1.1,1.01,2.33,1.78,3.9,2.46c1.72-0.8,2.73-1.41,4.11-2.46H465.16z M480.04,36.17
					c-0.74,0.28-0.98,0.4-2.98,1.32c-1.96,0.92-3.99,1.56-6.97,2.21c-0.37-0.92-0.4-1.01-0.98-1.81c3.5-0.64,5.62-1.29,8.13-2.58
					c0.49-0.25,0.83-0.49,1.23-0.8L480.04,36.17z M481.82,45.32c-0.58,0.28-0.58,0.28-2.33,1.17c-2.36,1.17-5.74,2.27-9.05,2.92
					c-0.25-0.71-0.58-1.38-0.98-2.02c2.49-0.37,3.93-0.74,5.86-1.41c2.39-0.83,3.99-1.63,5.06-2.52L481.82,45.32z M481,40.53
					c-0.58,0.21-0.64,0.25-2.61,1.26c-1.87,0.98-3.74,1.6-7.7,2.55c-0.37-0.86-0.49-1.14-0.98-1.84c3.62-0.61,5.77-1.32,8.56-2.79
					c0.46-0.25,0.8-0.49,1.2-0.83L481,40.53z"/>
				<path class="st5" d="M491.68,49.58c1.04,0,1.63-0.03,2.27-0.09c-0.06,0.55-0.06,0.77-0.09,1.44c-0.15,5.28-0.58,8.32-1.35,9.76
					c-0.61,1.1-1.35,1.44-3.25,1.44c-1.07,0-1.9-0.03-3.13-0.15c-0.09-1.01-0.15-1.5-0.43-2.39c1.2,0.18,2.46,0.31,3.28,0.31
					c1.2,0,1.5-0.21,1.81-1.32c0.49-1.87,0.71-3.9,0.77-6.97h-3.93c-0.83,0-1.47,0.03-2.09,0.06c0.58-2.55,0.89-5.49,0.98-8.93
					c0.77,0.09,1.23,0.12,2.82,0.12h2.36v-4.63h-3.44c-1.23,0-2.09,0.03-2.76,0.12v-2.39c0.64,0.12,1.47,0.18,2.85,0.18h3.56
					c0.83,0,1.47-0.03,2.12-0.09c-0.06,0.77-0.09,1.29-0.09,2.21v4.2c0,0.92,0.03,1.78,0.09,2.55c-0.67-0.06-1.26-0.09-2.18-0.09
					h-3.16c-0.09,1.17-0.37,3.47-0.58,4.66H491.68z M502.2,43.05c-1.35,0.06-2.09,0.12-3.74,0.18c-2.27,0.12-2.7,0.15-3.31,0.25
					l-0.31-2.33c0.49,0.06,0.89,0.09,1.47,0.09c0.31,0,0.74,0,1.2-0.03c1.56-2.49,2.42-4.2,3.16-6.38l2.52,0.58
					c-1.69,3.25-2.12,4.02-3.28,5.71c0.25,0,0.25,0,0.61,0c1.69-0.06,4.79-0.28,7.52-0.55c-1.01-1.26-1.53-1.84-2.92-3.28l1.75-1.04
					c2.21,2.24,3.84,4.2,5.83,6.97l-1.87,1.38c-0.74-1.17-1.01-1.6-1.44-2.21c-2.46,0.28-2.79,0.34-5.03,0.49v3.16h4.51
					c1.04,0,1.63-0.03,2.39-0.12c-0.09,0.61-0.12,1.17-0.12,2.06v3.99c0,1.01,0.03,1.69,0.12,2.39c-0.83-0.09-1.53-0.12-2.58-0.12
					h-4.33v4.36c2.15-0.28,2.82-0.37,4.33-0.61c-0.55-0.86-0.77-1.17-1.6-2.27l1.81-0.86c2.09,2.82,3.01,4.3,4.27,6.84l-2,0.92
					c-0.58-1.32-0.83-1.81-1.44-2.92c-4.73,0.89-8.41,1.38-14.08,1.93c-0.43,0.03-0.64,0.06-1.04,0.15l-0.46-2.52
					c0.4,0.03,0.58,0.03,0.86,0.03c1.26,0,4.45-0.21,7.21-0.46v-4.6h-3.84c-1.2,0-1.87,0.03-2.7,0.12c0.09-0.74,0.12-1.44,0.12-2.45
					v-3.71c0-0.86-0.03-1.63-0.12-2.27c0.77,0.09,1.44,0.12,2.67,0.12h3.87V43.05z M497.88,47.96v4.3h4.33v-4.3H497.88z
					 M504.35,52.25h4.66v-4.3h-4.66V52.25z"/>
				<path class="st5" d="M520.38,44.09c-0.18,9.88-0.89,13.62-3.41,18.2c-0.67-0.86-1.13-1.29-1.9-1.87
					c2.39-4.17,3.01-8.13,3.01-19.55c0-2.06-0.03-2.98-0.12-3.87c1.01,0.09,2.03,0.15,3.25,0.15h7.95v-0.83
					c0-0.74-0.06-1.32-0.18-1.93h2.67c-0.12,0.58-0.15,1.1-0.15,1.93v0.83h8.16c1.69,0,2.64-0.06,3.47-0.18v2.33
					c-1.01-0.09-1.78-0.12-3.22-0.12h-19.49v2.95h5.22v-0.4c0-0.77-0.03-1.32-0.12-1.84h2.49c-0.09,0.67-0.12,1.2-0.12,1.81v0.43
					h6.81v-0.37c0-0.71-0.03-1.32-0.12-1.87h2.49c-0.09,0.55-0.12,1.1-0.12,1.9v0.34h3.5c1.32,0,1.99-0.03,2.76-0.15v2.27
					c-0.68-0.12-1.44-0.15-2.79-0.15h-3.47v3.01c0,0.71,0.03,1.32,0.09,1.87c-0.49-0.06-0.83-0.06-1.96-0.06h-7.33
					c-1.23,0-1.78,0-2.18,0.06c0.06-0.58,0.09-1.26,0.09-1.87v-3.01H520.38z M539.52,52.38c-0.31,0.31-0.52,0.55-1.1,1.23
					c-1.41,1.63-3.07,3.1-4.85,4.3c2.85,1.29,6.14,2.03,9.79,2.24c-0.46,0.77-0.77,1.47-1.04,2.42c-4.7-0.64-7.79-1.6-10.89-3.34
					c-3.25,1.72-6.32,2.67-10.99,3.44c-0.18-0.83-0.4-1.32-0.92-2.27c4.17-0.46,7.06-1.17,9.88-2.46c-1.99-1.47-3.19-2.7-4.76-4.94
					c-1.38,0-2.06,0.03-2.79,0.15v-2.18c0.74,0.12,1.57,0.15,3.16,0.15h11.02c1.04,0,1.57-0.03,2.21-0.09L539.52,52.38z
					 M527.22,52.99c1.07,1.5,2.27,2.58,4.27,3.84c1.87-1.2,2.92-2.06,4.6-3.84H527.22z M527.86,47.04h6.81v-2.95h-6.81V47.04z"/>
				<path class="st5" d="M570.4,62.69v-1.78h-20.44v1.78h-2.58c0.12-0.92,0.18-1.99,0.18-3.77V39.8c0-1.5-0.06-2.55-0.18-3.74
					c1.07,0.12,2.09,0.15,3.59,0.15h18.35c1.53,0,2.55-0.03,3.65-0.15c-0.12,1.17-0.18,2.18-0.18,3.74v19.15
					c0,1.72,0.06,2.95,0.18,3.74H570.4z M549.96,58.76h20.44V38.35h-20.44V58.76z M562.97,42.77c1.47,0,2.27-0.03,3.13-0.12
					c-0.09,0.64-0.12,1.32-0.12,2.39v6.9c0,1.07,0.03,1.63,0.12,2.36c-0.89-0.09-1.75-0.12-3.13-0.12h-5.74
					c-1.69,0-2.24,0.03-3.13,0.12c0.09-0.8,0.12-1.41,0.12-2.36v-6.9c0-0.98-0.03-1.63-0.12-2.39c0.83,0.09,1.66,0.12,3.13,0.12
					H562.97z M556.5,52.13h7.21V44.8h-7.21V52.13z"/>
				<path class="st5" d="M582.46,58.61c0,1.5,0.06,2.67,0.18,3.8h-2.64c0.12-0.89,0.18-2.18,0.18-3.74v-6.11
					c0-1.17,0.03-2.06,0.09-3.5c-0.86,1.23-1.5,1.93-2.76,3.01c-0.37-1.04-0.61-1.47-1.2-2.21c2.33-1.84,3.96-3.71,5.55-6.38
					c0.55-0.92,0.8-1.41,0.95-1.93l2.09,1.32c-0.28,0.4-0.28,0.4-0.55,0.89c-0.64,1.14-1.1,1.78-1.9,2.88V58.61z M585.16,35.75
					c-0.25,0.31-0.25,0.31-0.71,0.89c-2.18,2.82-3.71,4.3-6.26,6.08c-0.4-0.8-0.77-1.26-1.47-1.93c2.27-1.32,3.96-2.85,5.58-5.09
					c0.37-0.52,0.55-0.8,0.74-1.29L585.16,35.75z M602.04,53.21c-0.37,0.34-0.43,0.43-0.89,0.95c-1.32,1.5-2.61,2.64-4.24,3.81
					c2.52,1.14,5.31,1.84,8.47,2.18c-0.43,0.67-0.8,1.44-1.04,2.3c-3.87-0.71-6.69-1.66-9.45-3.19c-2.85,1.56-6.14,2.61-10.16,3.25
					c-0.25-0.8-0.52-1.32-1.04-2.09c3.62-0.4,6.29-1.1,9.17-2.45c-1.53-1.07-2.36-1.78-3.65-3.19c-1.29,1.1-2.12,1.66-4.02,2.73
					c-0.4-0.71-0.74-1.14-1.41-1.75c3.07-1.32,5.28-3.04,7-5.46h-0.4c-1.35,0-2.06,0.03-2.73,0.12c0.09-0.64,0.12-1.53,0.12-2.88
					v-3.87c0-0.77,0-1.17-0.03-1.84c-0.49,0.61-0.74,0.92-1.5,1.78c-0.58-0.71-0.92-1.01-1.78-1.6c1.84-1.78,2.85-3.22,4.08-5.71
					c0.46-0.89,0.61-1.32,0.74-1.96l2.46,0.74c-0.21,0.34-0.25,0.43-0.58,1.1c-0.06,0.15-0.18,0.37-0.46,0.92h10
					c1.9,0,2.98-0.06,3.74-0.18v2.36c-0.83-0.12-2.06-0.18-3.68-0.18h-11.17c-0.49,0.83-0.64,1.07-1.11,1.72
					c0.86,0.06,1.29,0.06,2.09,0.06h8.84c1.5,0,2.15-0.03,2.92-0.12c-0.09,0.67-0.09,1.17-0.09,2.95v3.77c0,1.63,0.03,2.3,0.09,2.95
					c-0.8-0.09-1.44-0.12-2.73-0.12h-6.35c-0.49,0.74-0.77,1.07-1.32,1.78h6.41c1.23,0,1.87-0.03,2.36-0.15L602.04,53.21z
					 M589.95,44.67h10.06v-1.96h-10.06V44.67z M589.95,48.45h10.06v-1.99h-10.06V48.45z M590.96,53.85c1.1,1.14,2.27,2.06,3.9,3.01
					c1.53-0.98,2.42-1.69,3.71-3.01H590.96z"/>
			</g>
			<g class="st8">
				<path class="st5" d="M611.12,36.63c0.8,0.12,1.38,0.15,2.55,0.15h1.93c1.04,0,1.53-0.03,2.55-0.15
					c-0.18,1.87-0.28,3.44-0.28,5.09v14.91c0,1.44,0.06,2.33,0.25,3.47h-2.92c0.18-1.07,0.25-2.06,0.25-3.47V38.88h-1.66
					c-0.98,0-1.78,0.06-2.67,0.18V36.63z"/>
				<path class="st5" d="M627.3,51.98c0.64-0.74,1.35-1.6,1.99-2.36l7.76-9.7c1.04-1.29,1.6-2.06,2.3-3.13h2.3
					c-0.15,1.81-0.18,2.76-0.18,5.19v10.06h1.17c1.29,0,2.09-0.06,3.19-0.21v2.55c-1.14-0.15-1.9-0.21-3.22-0.21h-1.14v2.64
					c0,1.47,0.06,2.18,0.25,3.31h-2.79c0.18-1.07,0.25-1.93,0.25-3.31v-2.64h-8.22c-1.72,0-2.64,0.03-3.65,0.12V51.98z M639.2,44.28
					c0-1.63,0.03-2.61,0.18-4.17c-0.64,0.92-1.41,1.93-2.3,3.07l-7.06,8.9h9.17V44.28z"/>
				<path class="st5" d="M651.08,58.39c-0.83-0.83-1.47-1.78-1.84-2.82c-0.77-2.15-1.17-4.57-1.17-7.09c0-3.25,0.71-6.57,1.78-8.35
					c1.47-2.49,3.84-3.77,6.87-3.77c2.27,0,4.23,0.74,5.62,2.18c0.86,0.86,1.47,1.81,1.84,2.82c0.77,2.12,1.17,4.57,1.17,7.12
					c0,3.71-0.8,7-2.15,8.87c-1.53,2.15-3.68,3.22-6.51,3.22C654.43,60.57,652.53,59.83,651.08,58.39z M652.86,40.04
					c-0.64,0.71-1.14,1.47-1.38,2.24c-0.64,1.87-0.95,3.96-0.95,6.2c0,2.85,0.61,5.86,1.44,7.3c1.07,1.78,2.67,2.67,4.76,2.67
					c1.53,0,2.85-0.49,3.77-1.44c0.67-0.71,1.17-1.5,1.44-2.39c0.64-1.9,0.95-3.93,0.95-6.2c0-2.67-0.58-5.71-1.38-7.15
					c-1.01-1.84-2.67-2.79-4.82-2.79C655.1,38.48,653.84,39,652.86,40.04z"/>
			</g>
			<g class="st8">
				<path class="st5" d="M671.4,48.2c-1.1-1.07-1.72-2.88-1.72-5.12c0-2.33,0.58-4.08,1.72-5.25c0.92-0.92,2.27-1.44,3.77-1.44
					c3.47,0,5.49,2.42,5.49,6.6c0,2.33-0.58,4.11-1.72,5.22c-0.95,0.95-2.27,1.44-3.77,1.44S672.32,49.15,671.4,48.2z M690.86,36.17
					l1.38,1.04l-18.81,23.87l-1.35-1.07L690.86,36.17z M672.08,42.96c0,3.01,1.1,4.66,3.1,4.66c2,0,3.1-1.66,3.1-4.66
					c0-2.85-1.14-4.51-3.1-4.51S672.08,40.1,672.08,42.96z M685.33,59.43c-1.14-1.07-1.72-2.88-1.72-5.22c0-4.14,2.03-6.6,5.49-6.6
					c3.5,0,5.49,2.42,5.49,6.6c0,2.33-0.58,4.11-1.72,5.22c-0.95,0.95-2.27,1.44-3.77,1.44C687.6,60.88,686.28,60.39,685.33,59.43z
					 M686.01,54.19c0,3.01,1.1,4.66,3.1,4.66c1.99,0,3.1-1.66,3.1-4.66c0-2.85-1.13-4.51-3.1-4.51S686.01,51.33,686.01,54.19z"/>
			</g>
		</g>
		<g>
			<defs>
				<rect id="SVGID_7_" x="104.94" y="301.13" width="5.48" height="31.24"/>
			</defs>
			<clipPath id="SVGID_8_">
				<use xlink:href="#SVGID_7_"  style="overflow:visible;"/>
			</clipPath>
			<line class="st9" x1="107.68" y1="331.28" x2="107.68" y2="302.23"/>
		</g>
		<g>
			<defs>
				<rect id="SVGID_9_" x="322.26" y="301.13" width="5.48" height="31.24"/>
			</defs>
			<clipPath id="SVGID_10_">
				<use xlink:href="#SVGID_9_"  style="overflow:visible;"/>
			</clipPath>
			<line class="st10" x1="325" y1="331.28" x2="325" y2="302.23"/>
		</g>
		<g>
			<defs>
				<rect id="SVGID_11_" x="104.99" y="328.01" width="222.49" height="5.48"/>
			</defs>
			<clipPath id="SVGID_12_">
				<use xlink:href="#SVGID_11_"  style="overflow:visible;"/>
			</clipPath>
			<g class="st11">
				<defs>
					<rect id="SVGID_13_" x="-125.07" y="-187.42" width="1122.38" height="841.78"/>
				</defs>
				<clipPath id="SVGID_14_">
					<use xlink:href="#SVGID_13_"  style="overflow:visible;"/>
				</clipPath>
				<line class="st12" x1="326.38" y1="330.75" x2="106.08" y2="330.75"/>
			</g>
		</g>
		<g>
			<defs>
				<rect id="SVGID_15_" x="-125.07" y="-187.42" width="1122.38" height="841.78"/>
			</defs>
			<clipPath id="SVGID_16_">
				<use xlink:href="#SVGID_15_"  style="overflow:visible;"/>
			</clipPath>
			<g class="st13">
				<path class="st5" d="M63.37,381.92c-2.05,0-2.47,0.03-3.39,0.13c0.16-1.5,0.34-2.42,0.68-3.37c0.71-1.92,1.89-3.6,3.6-5.16
					c0.92-0.82,1.71-1.42,4.34-3.18c2.42-1.66,3.16-2.53,3.16-3.87c0-1.79-1.39-2.89-3.63-2.89c-1.53,0-2.68,0.53-3.34,1.55
					c-0.45,0.63-0.63,1.21-0.82,2.42l-3.76-0.45c0.37-2,0.84-3.08,1.81-4.21c1.32-1.53,3.39-2.34,6.02-2.34
					c4.6,0,7.44,2.21,7.44,5.81c0,1.74-0.58,3-1.87,4.21c-0.74,0.68-1,0.89-4.42,3.24c-1.16,0.82-2.47,1.92-3.13,2.63
					c-0.79,0.84-1.1,1.37-1.5,2.37h7.37c1.66,0,2.97-0.08,3.84-0.21v3.47c-1.24-0.1-2.29-0.16-3.97-0.16H63.37z"/>
				<path class="st5" d="M82.75,365.34c0.89-0.08,1.31-0.13,3.08-0.53c6-1.29,7.42-1.5,10.47-1.5c5.21,0,8.6,2.92,8.6,7.39
					c0,3.58-2.1,6.6-5.84,8.42c-2.39,1.18-4.45,1.66-9.26,2.18c-0.34-1.42-0.58-1.97-1.34-3.39c4.21-0.18,6.42-0.58,8.65-1.55
					c1.89-0.84,3.45-2.34,3.97-3.89c0.18-0.53,0.29-1.18,0.29-1.87c0-1.45-0.74-2.71-2-3.42c-0.84-0.47-1.95-0.71-3.39-0.71
					c-2.74,0-6.13,0.6-10.36,1.87c-1.34,0.39-1.55,0.45-2.1,0.74L82.75,365.34z"/>
				<path class="st5" d="M119.77,375.31c-1.5,3.39-3.18,4.95-5.34,4.95c-3,0-5.16-3.05-5.16-7.29c0-2.89,1.03-5.6,2.89-7.65
					c2.21-2.42,5.31-3.68,9.05-3.68c6.31,0,10.42,3.84,10.42,9.76c0,4.55-2.37,8.18-6.39,9.81c-1.26,0.53-2.29,0.79-4.13,1.1
					c-0.45-1.39-0.76-1.97-1.6-3.08c2.42-0.32,4-0.74,5.23-1.45c2.29-1.26,3.66-3.76,3.66-6.58c0-2.53-1.13-4.58-3.24-5.84
					c-0.82-0.47-1.5-0.68-2.66-0.79C122,368.71,121.08,372.34,119.77,375.31z M115.9,365.9c-2.21,1.58-3.58,4.29-3.58,7.1
					c0,2.16,0.92,3.87,2.08,3.87c0.87,0,1.76-1.1,2.71-3.37c1-2.37,1.87-5.92,2.18-8.89C117.92,364.76,116.98,365.13,115.9,365.9z"
					/>
				<path class="st5" d="M151.46,367.58c-0.03,0.26-0.03,0.26-0.05,0.68c-0.34,4.47-1.31,7.26-3.39,9.73
					c-1.68,1.97-3.58,3.31-6.84,4.81c-0.66-1.34-1.05-1.87-2.18-2.89c2.26-0.79,3.79-1.66,5.34-3.02c2.39-2.13,3.5-4.84,3.76-9.31
					h-6.31c-1.53,2.45-2.47,3.6-4.37,5.34c-1-1.08-1.42-1.39-2.68-2.08c2.42-1.97,4.16-4.24,5.55-7.23c0.79-1.63,1.1-2.6,1.32-3.76
					l3.42,0.82c-0.21,0.42-0.21,0.42-1,2.26c-0.21,0.47-0.47,1.05-0.79,1.71c0.76-0.03,0.76-0.03,11.5-0.03
					c1.89,0,2.21-0.03,3.31-0.16v3.24c-0.68-0.08-0.68-0.08-1.6-0.08c-0.34,0-0.92,0-1.74-0.03H151.46z"/>
				<path class="st5" d="M183.4,368.74c-0.26,0.47-0.42,0.84-0.74,1.66c-1.37,3.87-3.37,6.79-6.1,8.89
					c-1.87,1.45-3.58,2.34-6.89,3.58c-0.58-1.31-0.89-1.76-2.05-3.05c3.21-0.82,5.29-1.79,7.31-3.47c1.95-1.63,3.08-3.24,4.24-6.16
					h-12.81c-1.76,0-2.42,0.03-3.37,0.13v-3.21c1,0.16,1.58,0.18,3.42,0.18h12.52c1.63,0,2.16-0.05,2.97-0.24L183.4,368.74z
					 M165.22,360.77c0.87,0.16,1.42,0.18,3.08,0.18h9.18c1.66,0,2.21-0.03,3.08-0.18V364c-0.82-0.11-1.32-0.13-3.03-0.13h-9.29
					c-1.71,0-2.21,0.03-3.02,0.13V360.77z"/>
				<path class="st5" d="M208.31,362.77c-0.32,0.08-0.32,0.08-2.21,0.71c-1.5,0.47-2.34,0.68-4.39,1.08
					c-0.03,3.55-0.03,3.55-0.08,4.45h5.58c1.79,0,2.24-0.03,3.21-0.18v3.16c-0.97-0.1-1.47-0.13-3.16-0.13h-5.81
					c-0.29,2.45-0.84,4.21-1.76,5.73c-0.92,1.53-2.45,3-4.29,4.18c-0.74,0.47-1.24,0.76-2.45,1.32c-0.76-1.34-1.18-1.84-2.29-2.79
					c1.89-0.68,2.89-1.24,4.08-2.21c1.58-1.26,2.58-2.76,3.03-4.47c0.11-0.45,0.18-0.89,0.29-1.76h-6.5c-1.68,0-2.18,0.03-3.16,0.13
					v-3.16c0.97,0.16,1.42,0.18,3.21,0.18h6.73c0.05-1.1,0.05-2.13,0.05-3.97c-2.13,0.32-2.95,0.39-7.29,0.6
					c-0.26-1.18-0.39-1.58-0.97-2.84c0.82,0.05,1.24,0.05,1.63,0.05c3.52,0,8.02-0.6,11.26-1.53c1.53-0.45,2.29-0.74,3.18-1.24
					L208.31,362.77z"/>
				<path class="st5" d="M214.65,378.29c2.26-0.13,5.39-0.89,7.79-1.95c3.29-1.42,5.73-3.45,7.81-6.44
					c1.16-1.68,1.89-3.13,2.68-5.26c1.03,1.24,1.45,1.63,2.79,2.58c-2.24,4.81-4.74,7.92-8.34,10.31
					c-2.68,1.79-5.94,3.08-10.02,3.95c-1.05,0.21-1.13,0.24-1.74,0.45L214.65,378.29z M216.89,361.95c3.13,1.95,4.76,3.16,6.79,5.08
					l-2.26,2.87c-2.1-2.24-4.26-3.97-6.71-5.34L216.89,361.95z"/>
				<path class="st5" d="M249.03,360.37c-0.08,0.26-0.16,0.55-0.21,0.82c-0.05,0.37-0.08,0.5-0.16,0.89
					c-0.08,0.58-0.08,0.58-0.45,2.55c-0.1,0.58-0.1,0.6-0.18,0.95c0.76-0.03,1.13-0.05,1.63-0.05c1.74,0,3.02,0.47,3.89,1.39
					c0.89,1,1.24,2.26,1.24,4.66c0,4.52-0.76,8.13-2.03,9.58c-0.74,0.87-1.53,1.18-2.92,1.18c-1.21,0-2.29-0.21-4.05-0.79
					c0.03-0.5,0.05-0.89,0.05-1.16c0-0.68-0.05-1.21-0.26-2.24c1.42,0.63,2.92,1.05,3.84,1.05c0.76,0,1.18-0.5,1.58-1.79
					c0.42-1.37,0.68-3.76,0.68-6c0-2.42-0.6-3.13-2.68-3.13c-0.53,0-0.92,0.03-1.53,0.08c-0.79,3.21-1.03,3.97-1.6,5.71
					c-0.92,2.6-1.63,4.29-3.16,7.39c-0.13,0.24-0.13,0.24-0.4,0.76c-0.08,0.16-0.08,0.21-0.21,0.45l-3.05-1.68
					c0.79-1.03,1.84-2.92,2.74-4.95c1.13-2.58,1.5-3.66,2.55-7.44c-1.34,0.16-3.84,0.63-4.71,0.87l-0.32-3.1
					c0.97,0,4.16-0.32,5.6-0.55c0.47-2.81,0.68-4.45,0.68-5.31c0-0.11,0-0.26,0-0.47L249.03,360.37z M256.98,360.53
					c1.05,1.13,1.66,1.95,2.47,3.45l-2.05,1.08c-0.71-1.34-1.53-2.5-2.47-3.5L256.98,360.53z M258.87,365.19
					c2.03,2.68,3.29,5.31,4.29,8.84l-3,1.5c-0.5-2.24-1.08-3.87-2.08-5.92c-0.79-1.55-1.18-2.24-1.87-3.1L258.87,365.19z
					 M260.42,363.58c-0.68-1.24-1.47-2.34-2.42-3.39l1.97-1.03c1.03,1.08,1.74,2.03,2.45,3.29L260.42,363.58z"/>
				<path class="st5" d="M271.29,369.58c-0.18,3.39-0.55,5.89-1.13,8c-0.66,2.34-1.55,4.29-2.79,6.05
					c-0.97-1.21-1.31-1.53-2.29-2.34c1.42-2.13,1.95-3.34,2.47-5.58c0.6-2.71,0.89-6.42,0.89-11.39c0-1.68-0.05-3.05-0.16-3.95
					c1,0.11,1.76,0.13,3.08,0.13h14.05c1.58,0,2.47-0.05,3.24-0.16v3.13c-0.87-0.1-1.66-0.13-3.24-0.13h-14.05v2.5
					c0,0.18,0,0.37,0,1h11.44c1.39,0,2.08-0.03,2.74-0.13l1.42,1.6c-0.26,0.47-0.29,0.53-0.63,1.39c-1.13,2.92-2.74,5.42-4.84,7.63
					c2.37,1.55,4.92,2.58,8.08,3.21c-0.79,1.1-1.05,1.6-1.66,3.03c-2.34-0.63-3.81-1.21-5.81-2.31c-1.03-0.55-1.79-1.08-2.81-1.89
					c-2.34,1.89-4.68,3.16-7.97,4.34c-0.6-1.29-1-1.89-1.74-2.76c3.39-1.08,5.29-1.95,7.5-3.55c-1.08-1.13-1.92-2.24-2.79-3.74
					c-0.79-1.37-1.13-2.13-1.79-4.08H271.29z M275.42,369.58c0.92,2.45,2.03,4.21,3.87,5.97c1.87-1.81,2.76-3.18,3.97-5.97H275.42z"
					/>
				<path class="st5" d="M296.09,364.48c-0.03,11.44-0.5,14.78-2.71,18.89c-0.84-1.05-1.37-1.55-2.37-2.26
					c0.97-1.71,1.37-2.76,1.71-4.58c0.37-1.97,0.55-5.81,0.55-11.13c0-1.89-0.03-2.79-0.1-3.68c0.87,0.1,1.6,0.13,2.74,0.13h6.71
					v-1.16c0-0.58-0.03-1-0.13-1.5h3.18c-0.11,0.42-0.13,0.82-0.13,1.53v1.13h6.81c1.45,0,2.34-0.05,3.1-0.16v2.92
					c-0.92-0.11-1.74-0.13-3.08-0.13h-8.71c3.52,1.97,4.05,2.31,6.58,4.37l-2.03,2.24c-1.97-1.97-3.47-3.05-6.68-4.81l2.03-1.79
					H296.09z M295.88,379.92c0.82-1.79,1.08-2.58,1.42-4.31c0.32-1.63,0.45-2.74,0.58-5.08l2.74,0.71
					c-0.42,4.87-0.82,6.87-2.08,10.39L295.88,379.92z M304.9,368.97c-0.08,0.6-0.13,1.37-0.13,2.47v8.26c0,0.71,0.21,0.82,1.79,0.82
					c2.08,0,2.1-0.1,2.1-4.84c1.05,0.47,1.89,0.76,2.79,0.92c-0.21,3.6-0.45,4.92-1.03,5.66c-0.58,0.74-1.66,1.03-3.89,1.03
					c-3.66,0-4.58-0.39-4.58-1.97v-9.89c0-1.18-0.03-1.82-0.16-2.45H304.9z M313.06,381.15c-0.74-4.05-1.39-6.16-3.02-9.52l2.5-1.24
					c1.74,3.84,2.45,5.84,3.34,9.42L313.06,381.15z"/>
				<path class="st5" d="M325.76,360.48c-0.16,0.76-0.21,1.53-0.32,3.55c-0.1,2.45-0.26,7.79-0.26,9.65c0,2.5,0.16,3.45,0.68,4.24
					c0.61,0.87,1.87,1.37,3.53,1.37c2.84,0,5.13-1.6,6.37-4.5c0.58-1.37,0.92-2.6,1.21-4.42c1.42,1.16,1.89,1.45,3.18,2.03
					c-1.05,3.55-1.84,5.26-3.13,6.71c-1.97,2.24-4.58,3.34-7.89,3.34c-1.81,0-3.5-0.42-4.6-1.16c-1.81-1.21-2.58-3.24-2.58-6.76
					c0-1.37,0.05-4,0.21-10.6c0.03-0.79,0.03-1.34,0.03-1.71c0-0.74-0.03-1.1-0.11-1.79L325.76,360.48z"/>
				<path class="st5" d="M343.78,363.16c0.58,0.03,0.87,0.03,1,0.03c0.47,0,0.47,0,4.34-0.26c1.47-0.08,5.84-0.32,13.13-0.66
					c2.16-0.1,2.55-0.13,3.03-0.26l0.18,3.37c-0.29-0.03-0.29-0.03-0.55-0.03c-1.58,0-3.53,0.53-5.21,1.42
					c-3.34,1.74-5.31,4.37-5.31,7.02c0,2.05,1.29,3.63,3.5,4.29c1.29,0.39,2.97,0.68,3.92,0.68c0.03,0,0.26,0,0.53-0.03l-0.47,3.58
					c-0.32-0.08-0.45-0.11-0.89-0.16c-2.89-0.37-4.55-0.84-6.16-1.74c-2.42-1.37-3.76-3.6-3.76-6.34c0-2.24,0.89-4.45,2.5-6.21
					c1-1.08,1.95-1.76,3.66-2.63c-2.13,0.32-3.16,0.39-8.87,0.82c-1.76,0.13-3.34,0.32-4.37,0.53L343.78,363.16z"/>
			</g>
			<g class="st13">
				<path class="st5" d="M103.18,400.57c-2.39,0.32-4.45,0.53-7.31,0.74c-0.29-1.1-0.45-1.55-1-2.66
					c7.55-0.24,14.99-1.58,18.31-3.34l1.95,2.55c-0.39,0.1-0.39,0.1-1.29,0.34c-0.05,0.03-0.26,0.08-0.58,0.18
					c-2.58,0.79-4.66,1.29-7.18,1.74v3.05l7.02-0.68c1.76-0.16,2.26-0.24,3.02-0.42l0.18,2.87c-0.29-0.03-0.4-0.03-0.63-0.03
					c-0.55,0-1.5,0.05-2.37,0.16l-7.23,0.71v3.03l8.5-0.71c1.6-0.16,2.16-0.24,3.02-0.42l0.18,2.95c-0.34-0.03-0.55-0.03-0.74-0.03
					c-0.53,0-1.39,0.05-2.26,0.13l-8.71,0.74v4.02c0,1,0.47,1.13,4.05,1.13c3.66,0,4.47-0.13,4.81-0.79
					c0.21-0.45,0.32-1.31,0.32-2.74v-0.61c0.95,0.42,1.76,0.68,2.76,0.84c-0.1,3.16-0.53,4.55-1.53,5.18
					c-0.84,0.5-2.92,0.74-6.84,0.74c-3.24,0-4.58-0.18-5.52-0.71c-0.68-0.39-0.95-1.08-0.95-2.39v-4.42l-5.71,0.5
					c-1.42,0.13-1.97,0.18-3.03,0.39l-0.18-2.97c0.34,0.05,0.47,0.05,0.66,0.05c0.37,0,1.63-0.08,2.34-0.13l5.92-0.53v-2.97
					l-4.55,0.45c-1.79,0.16-2.26,0.24-3.03,0.39l-0.18-2.89c0.32,0.03,0.45,0.03,0.6,0.03c0.6,0,1.5-0.05,2.39-0.13l4.76-0.45
					V400.57z"/>
				<path class="st5" d="M131.61,408.51c-0.05,0.11-0.18,0.42-0.34,0.79h10.39c1.29,0,2.08-0.05,2.84-0.16v2.53
					c-0.87-0.08-1.68-0.13-2.84-0.13h-11.31c-0.16,0.32-0.21,0.42-0.45,0.84h7.21c1.05,0,1.66-0.03,2.26-0.11l1.34,1.37
					c-0.87,0.76-3.18,2.39-4.29,3.02c2.03,0.34,3.84,0.45,8.37,0.5c-0.5,0.92-0.95,1.89-1.26,2.76c-4.21-0.37-4.47-0.39-6.18-0.68
					c-1.71-0.26-2.74-0.53-4.08-1.05c-2.16,0.79-4.18,1.26-7.39,1.71c-0.32-0.6-0.58-1.08-1.03-1.76c-1.08,0.79-1.6,1.16-2.66,1.74
					c-0.58-0.89-0.87-1.24-1.89-2.16c3.74-1.87,5.63-3.5,7.1-6.18h-3.89c-1.13,0-1.89,0.03-2.81,0.13v-2.53
					c0.74,0.11,1.66,0.16,2.81,0.16h4.79c0.13-0.42,0.16-0.55,0.26-1.03l2.84,0.21c-0.29-0.5-0.34-0.6-0.58-0.97
					c-1.47,0.21-5.6,0.6-8.26,0.76c-0.45,0.03-0.97,0.11-1.21,0.16l-0.21-2.29c0.29,0.05,0.58,0.05,0.95,0.05c0.1,0,0.24,0,0.47,0
					c0.18,0,0.21,0,0.66-0.03c0.37-0.6,0.6-1.08,0.87-1.63h-1.13c-1.24,0-1.66,0.03-2.31,0.11v-2.03c0.63,0.08,1.05,0.11,2.24,0.11
					v-4.63c0-1-0.03-1.63-0.1-2.31c0.66,0.08,1.37,0.1,2.58,0.1h5.05c1.18,0,1.95-0.05,2.76-0.16v2.13
					c-0.66-0.08-1.26-0.11-2.5-0.11h-5.16v0.63h5.34c0.87,0,1.24-0.03,1.74-0.08v1.68c-0.47-0.05-0.92-0.08-1.74-0.08h-5.34v0.68
					h5.34c0.92,0,1.21-0.03,1.74-0.08v1.66c-0.47-0.05-0.92-0.08-1.74-0.08h-5.34v0.63h6.26c1.1,0,1.5-0.03,2.13-0.11v2.03
					c-0.58-0.08-1.13-0.11-2.13-0.11h-0.5c0.79,0.87,1.37,1.6,2.21,2.84l-1.89,1.13H131.61z M125.61,417.56
					c1.68-0.18,3.26-0.45,4.81-0.84c-0.87-0.58-1.37-0.97-2.18-1.81C127.38,415.96,126.67,416.67,125.61,417.56z M126.85,404.54
					c-0.37,0.71-0.45,0.89-0.82,1.53c1.53-0.08,2.39-0.16,3.5-0.29c-0.21-0.26-0.29-0.34-0.55-0.6l1.39-0.63H126.85z M130.77,414.32
					c0.79,0.6,1.47,1.03,2.5,1.45c1.21-0.5,1.87-0.82,2.87-1.45H130.77z M143.16,397.2c-0.55,0.21-0.55,0.21-1.71,0.68
					c-2.87,1.21-4,1.55-6.97,2.18c-0.42-1.1-0.5-1.29-1.08-2.18c3.52-0.6,6.45-1.55,8-2.63L143.16,397.2z M144.63,405.3
					c-3.97,1.89-5.97,2.55-9.81,3.24c-0.24-0.71-0.66-1.6-1.13-2.42c4.58-0.74,7.55-1.74,9.31-3.05L144.63,405.3z M143.92,401.01
					c-0.5,0.18-0.74,0.29-2.03,0.89c-1.74,0.82-3.81,1.45-6.97,2.1c-0.39-1.03-0.55-1.32-1.08-2.16c3.45-0.6,5.47-1.21,7.37-2.13
					c0.5-0.26,0.74-0.39,1.05-0.63L143.92,401.01z"/>
				<path class="st5" d="M166.84,410.72c-0.66,0.68-1.21,1.45-1.74,2.47c-2.74-1.81-5-4.21-6.34-6.68c-0.37,0.97-0.74,1.71-1.26,2.5
					c-1.24,1.87-2.63,3.16-5,4.66c-0.37-0.71-0.95-1.45-1.68-2.21v5.1c0,1.63,0.03,2.42,0.13,3.13h-3.24
					c0.13-0.89,0.18-1.92,0.18-3.18v-14.99c0-1.08-0.03-1.81-0.1-2.55c0.95,0.1,1.68,0.13,3.05,0.13h6.45
					c0.03-0.6,0.03-0.97,0.03-1.42c0-1.05-0.05-1.63-0.16-2.31h3.29c-0.11,0.47-0.13,0.71-0.16,1.32c-0.03,0.37-0.03,0.37-0.08,1.45
					c-0.03,0.55-0.03,0.55-0.05,0.97h6.71c1.45,0,2.1-0.03,3-0.13c-0.08,0.71-0.1,1.45-0.1,2.55v15.07c0,1.1-0.08,1.5-0.4,1.89
					c-0.58,0.74-1.53,0.95-4,0.95c-0.71,0-1.5-0.03-2.55-0.08c-0.18-1.32-0.37-1.97-0.82-3c1.32,0.18,2.39,0.29,3.42,0.29
					c1.29,0,1.42-0.08,1.42-0.84V410.72z M150.82,411.14c2.13-1.26,3.34-2.37,4.37-3.95c0.95-1.47,1.53-3.18,1.87-5.47h-6.23V411.14
					z M159.92,401.72c-0.08,0.66-0.1,0.79-0.18,1.26c0.74,1.63,1.79,3.16,2.97,4.37c1.13,1.16,2.34,2.05,4.13,3.08v-8.71H159.92z"/>
				<path class="st5" d="M184.41,405.17c1.13,0,1.76-0.03,2.26-0.13v2.89c-0.58-0.11-1.26-0.13-2.13-0.13h-8.81
					c-1.29,0-1.87,0.03-2.63,0.13v-2.89c0.71,0.1,1.31,0.13,2.66,0.13h5.18c0.63-1.47,1.03-2.68,1.37-4.29l2.71,0.68
					c-0.37,1.26-0.82,2.39-1.39,3.6H184.41z M184.04,398.07c1.18,0,1.76-0.03,2.39-0.13v2.84c-0.55-0.11-1.08-0.13-2.21-0.13h-8.42
					c-0.97,0-1.58,0.03-2.16,0.13v-2.84c0.6,0.1,1.21,0.13,2.5,0.13h2.68v-0.74c0-0.74-0.05-1.31-0.16-1.84h3.13
					c-0.08,0.53-0.13,1.08-0.13,1.84v0.74H184.04z M177.41,419.69h-2.84c0.08-0.74,0.1-1.37,0.1-2.47v-5.71
					c0-1.08-0.03-1.55-0.08-2.16c0.6,0.05,1.13,0.08,2.1,0.08h6.79c1.08,0,1.53-0.03,1.92-0.08c-0.05,0.47-0.08,0.82-0.08,1.95v6.39
					c0,0.92,0.03,1.39,0.11,1.97h-2.89v-1.5h-5.13V419.69z M177.83,400.67c0.6,1.21,0.97,2.21,1.37,3.68l-2.6,0.79
					c-0.37-1.58-0.66-2.47-1.24-3.68L177.83,400.67z M177.41,415.64h5.16v-3.68h-5.16V415.64z M197.46,397.94
					c-0.18,0.34-0.29,0.55-0.53,1.16c-0.89,2.34-1.74,4.16-2.84,6.26c1.45,1.66,2.03,2.53,2.53,3.81c0.47,1.13,0.74,2.47,0.74,3.66
					c0,1.66-0.68,2.87-1.87,3.29c-0.66,0.26-1.39,0.34-2.68,0.34c-0.45,0-0.68,0-1.32-0.05c-0.05-1.37-0.18-2-0.6-2.87
					c0.68,0.11,1.21,0.16,1.97,0.16c1.31,0,1.74-0.29,1.74-1.13c0-1.1-0.29-2.26-0.84-3.39c-0.6-1.21-1.18-1.97-2.74-3.42
					c1.53-2.81,2.31-4.68,2.89-6.89h-3.66v17.91c0,1.42,0.05,2.31,0.18,3.08h-3.1c0.1-0.84,0.16-1.87,0.16-3v-18.49
					c0-0.76-0.03-1.5-0.1-2.21c0.71,0.08,1.29,0.11,2.16,0.11h4.55c1.03,0,1.58-0.03,2.08-0.13L197.46,397.94z"/>
				<path class="st5" d="M202.03,418.43c-0.03-0.47-0.05-0.63-0.13-1.24c-0.5-3.18-0.68-5.21-0.68-7.87c0-3.39,0.32-6.39,1.08-10.29
					c0.29-1.47,0.34-1.74,0.39-2.45l3.47,0.37c-0.63,1.55-1.24,4.5-1.66,7.87c-0.26,1.97-0.37,3.52-0.39,5.81
					c0,0.58-0.03,0.79-0.05,1.45c0.29-0.92,0.34-1.1,1.37-3.47l2.1,0.95c-1.45,3.05-2.34,6.1-2.34,7.97c0,0.16,0,0.37,0.03,0.71
					L202.03,418.43z M213.24,408.04c-1.32,1.53-1.87,2.66-1.87,3.79c0,1.5,1.45,2.29,4.18,2.29c2.31,0,4.6-0.37,6.26-1l0.26,3.34
					c-0.37,0.03-0.47,0.05-1.08,0.16c-2.1,0.34-3.71,0.5-5.45,0.5c-3.26,0-5.37-0.74-6.52-2.29c-0.5-0.66-0.79-1.63-0.79-2.58
					c0-1.71,0.79-3.47,2.42-5.42L213.24,408.04z M208.9,399.33c1.18,0.32,2.58,0.42,4.87,0.42c2.92,0,5.42-0.24,7.16-0.71l0.16,3.18
					c-0.21,0.03-0.61,0.08-1.87,0.24c-1.68,0.21-3.68,0.32-5.63,0.32c-1.92,0-1.95,0-4.73-0.29L208.9,399.33z"/>
				<path class="st5" d="M225.44,415.64c0.92-1.37,1.32-2.13,1.84-3.68c0.55-1.58,0.79-2.55,1.13-4.68l2.84,0.68
					c-0.74,4.18-1.37,6.13-3.13,9.58L225.44,415.64z M232.05,397.3c0-0.53-0.03-1.03-0.13-1.55h3.1c-0.1,0.5-0.13,1-0.13,1.55v1.13
					h5.31v-1.13c0-0.53-0.03-1.03-0.13-1.55h3.08c-0.11,0.53-0.13,0.97-0.13,1.55v1.13h3.42c1.37,0,2.21-0.05,3.05-0.16v2.95
					c-0.82-0.11-1.6-0.13-3.05-0.13h-3.42v1.26c0,0.53,0.03,0.92,0.13,1.42h-3.03c0.05-0.53,0.08-0.82,0.08-1.45v-1.24h-5.31v1.24
					c0,0.66,0.03,0.95,0.08,1.45h-3.05c0.11-0.5,0.13-0.95,0.13-1.42v-1.26h-3.1c-1.45,0-2.24,0.03-3.05,0.13v-2.95
					c0.87,0.1,1.71,0.16,3.05,0.16h3.1V397.3z M235.47,415.82c0,0.68,0.5,0.84,2.92,0.84c2,0,2.84-0.16,3.13-0.58
					c0.32-0.45,0.55-2,0.63-3.92c1.03,0.53,1.68,0.76,2.92,1.05c-0.24,2.37-0.37,3-0.82,4.05c-0.47,1.18-0.92,1.58-2.05,1.81
					c-0.92,0.21-2.26,0.29-4.52,0.29c-2.55,0-3.53-0.11-4.24-0.45c-0.71-0.34-0.95-0.89-0.95-2.16v-8.71c0-0.95-0.03-1.47-0.16-2.5
					h3.29c-0.13,0.79-0.16,1.32-0.16,2.42V415.82z M240.46,409.96c-1.66-2.13-2.89-3.39-5.05-5.05l1.82-1.84
					c2.39,1.71,3.66,2.81,5.39,4.66L240.46,409.96z M247.41,417.19c-1.45-4.29-2.39-6.29-4.37-9l2.6-1.5
					c2.03,2.92,3.03,4.84,4.52,8.63L247.41,417.19z"/>
				<path class="st5" d="M253.83,398.7c1.08,0.24,2.76,0.34,6.1,0.34c0.71-1.58,0.95-2.37,1.05-3.26l3.45,0.37
					c-0.16,0.26-0.16,0.26-1.05,2.37c-0.13,0.29-0.18,0.37-0.24,0.47c0.21-0.03,0.21-0.03,1.66-0.1c3.05-0.18,5.45-0.47,6.89-0.89
					l0.18,3c-0.74,0.05-0.74,0.05-2.08,0.21c-1.92,0.24-5.26,0.45-7.92,0.53c-0.76,1.5-1.5,2.55-2.42,3.5l0.03,0.05
					c0.18-0.13,0.18-0.13,0.53-0.4c0.97-0.74,2.37-1.18,3.71-1.18c2.05,0,3.34,0.97,3.76,2.79c2.03-0.74,3.37-1.21,4.02-1.42
					c1.42-0.5,1.53-0.53,1.95-0.79l1.24,3.03c-0.74,0.1-1.53,0.32-2.92,0.71c-0.37,0.1-1.68,0.55-3.95,1.34v0.29
					c0.03,0.68,0.03,0.68,0.03,1.05c0,0.26,0,0.71,0,1.05c-0.03,0.45-0.03,0.68-0.03,0.87c0,0.58,0.03,0.95,0.08,1.39l-3.05,0.08
					c0.1-0.47,0.16-1.82,0.16-3.05c0-0.37,0-0.37,0-0.63c-1.29,0.6-1.97,0.97-2.53,1.37c-0.92,0.68-1.37,1.39-1.37,2.16
					c0,1.37,1.26,1.92,4.45,1.92c3.16,0,5.87-0.39,7.73-1.1l0.26,3.39c-0.45,0-0.58,0.03-1.21,0.1c-1.89,0.29-4.42,0.47-6.73,0.47
					c-2.79,0-4.52-0.32-5.87-1.1c-1.21-0.68-1.92-1.95-1.92-3.39c0-1.08,0.32-1.92,1.16-2.92c1.18-1.47,2.68-2.47,5.66-3.71
					c-0.13-0.97-0.66-1.42-1.6-1.42c-1.53,0-3.37,0.92-5.39,2.71c-1.1,0.92-1.71,1.58-2.29,2.39l-2.39-2.37
					c0.68-0.53,1.45-1.26,2.37-2.34c1.03-1.21,2.63-3.5,3.16-4.5c0.1-0.21,0.1-0.21,0.21-0.34c-0.11,0-0.45,0.03-0.45,0.03
					c-0.42,0-2.74-0.05-3.31-0.05c-0.5-0.03-0.5-0.03-0.74-0.03c-0.08,0-0.24,0-0.42,0.03L253.83,398.7z"/>
				<path class="st5" d="M281.13,399.17c-1.1,0-1.63,0.03-2.29,0.13v-2.97c0.89,0.11,1.66,0.16,2.68,0.16h8.21
					c1.16,0,1.82-0.05,2.71-0.16v2.97c-0.66-0.1-1.05-0.13-2.29-0.13h-0.18v5.45h0.47c1.16,0,1.68-0.03,2.31-0.13v2.95
					c-0.66-0.1-1.21-0.13-2.34-0.13h-0.45v9.21c0,1.47,0.03,2.16,0.16,3.05l-3.16,0.03c0.1-0.92,0.16-1.58,0.16-3.03v-9.26h-2.95
					c-0.13,2.81-0.32,4.47-0.71,6c-0.63,2.42-1.58,4.26-3.37,6.45c-0.74-0.95-1.21-1.42-2.24-2.18c2.5-2.79,3.39-5.39,3.58-10.26
					h-0.66c-1.03,0-1.63,0.03-2.34,0.16v-3c0.68,0.13,1.26,0.16,2.34,0.16h0.68v-5.45H281.13z M284.24,404.62h2.89v-5.45h-2.89
					V404.62z M303.1,411.35c-0.55,0.5-0.63,0.58-1.08,1.08c-2.71,3.02-5.73,5.34-9.47,7.23c-0.47-0.87-0.95-1.58-1.79-2.53
					c4.29-1.81,8.21-4.87,10.05-7.87L303.1,411.35z M301.44,397.44c-0.26,0.21-0.58,0.5-2.1,1.92c-1.89,1.71-3.87,3.05-6.34,4.29
					c-0.5-1.05-0.95-1.74-1.66-2.58c1.89-0.79,3.76-1.92,5.37-3.26c1.18-1,1.89-1.71,2.26-2.29L301.44,397.44z M302.31,404.3
					c-0.37,0.32-0.63,0.53-1.1,1.05c-1.08,1.16-3.03,2.81-4.29,3.68c-1.29,0.89-2.55,1.63-3.84,2.24c-0.58-1.18-0.97-1.84-1.66-2.63
					c2.68-1.13,4.52-2.26,6.45-3.97c0.87-0.76,1.66-1.66,2.1-2.37L302.31,404.3z"/>
				<path class="st5" d="M327.14,404.67c-0.16,0.39-0.16,0.39-0.58,1.39c-1.16,2.84-2.21,4.76-3.55,6.58
					c0.5,0.92,1.03,1.66,1.58,2.26c0.45,0.47,1.03,0.95,1.18,0.95c0.11,0,0.21-0.16,0.34-0.5c0.18-0.6,0.18-0.6,0.5-3.08
					c0.89,0.89,1.24,1.16,2.37,1.76c-0.6,3.55-1.53,5.1-2.97,5.1c-1.34,0-3.42-1.76-4.95-4.24c-1.97,1.95-4.02,3.45-6.37,4.6
					c-0.82-1.21-1.1-1.53-2-2.29c2.76-1.13,5.08-2.71,7.08-4.84c-1.1-2.71-1.68-5.87-1.97-10.5h-8.15
					c-0.03,2.53-0.03,2.53-0.05,3.47h4.84c0.92,0,1.32-0.03,1.87-0.1c-0.05,0.47-0.1,1.21-0.16,2.24c-0.26,4.74-0.42,6.13-0.87,7.23
					c-0.42,1.05-1.37,1.45-3.39,1.45c-0.74,0-1.16-0.03-2-0.08c-0.13-1.13-0.29-1.76-0.68-2.79c1.39,0.18,1.79,0.21,2.55,0.21
					c0.82,0,1.05-0.16,1.18-0.82c0.21-0.92,0.34-2.63,0.39-4.76h-3.84c-0.18,3-0.42,4.81-0.82,6.6c-0.47,2.1-1,3.29-2.16,5.13
					c-0.82-1.05-1.34-1.55-2.29-2.24c0.92-1.42,1.47-2.66,1.82-4.16c0.53-2.21,0.79-5.71,0.79-10.39c0-2.03-0.03-2.68-0.16-3.74
					c0.95,0.08,2.03,0.13,3.39,0.13h7.63c-0.03-0.21-0.03-0.89-0.08-2.05c-0.03-0.97-0.03-1.08-0.13-1.66h3.13
					c-0.08,0.55-0.13,1.63-0.13,2.5c0,0.24,0,0.95,0,1.21h3.47c-0.74-0.97-1.24-1.53-2.31-2.42l2.03-1.29
					c1.21,1.03,1.66,1.47,2.66,2.76l-1.37,0.95h0.79c1.39,0,2.1-0.03,2.79-0.16v2.89c-0.87-0.08-1.87-0.13-3.21-0.13h-4.73
					c0.24,3.45,0.6,5.87,1.21,7.87c1.32-2.13,2.21-4.31,2.53-6.16L327.14,404.67z"/>
			</g>
		</g>
		<g>
			<defs>
				<rect id="SVGID_17_" x="206.05" y="104.03" width="236.31" height="180.85"/>
			</defs>
			<clipPath id="SVGID_18_">
				<use xlink:href="#SVGID_17_"  style="overflow:visible;"/>
			</clipPath>
			<g class="st14">
				<path class="st7" d="M356.47,237.48l-5.61,16.82h-58.23v-2.53l26.04-25.32c13.38-13.02,20.07-24.29,20.07-33.82
					c0-5.54-1.87-10.37-5.61-14.47c-3.74-4.1-8.38-6.15-13.93-6.15c-4.7,0-8.71,1.39-12.03,4.16c-3.32,2.77-5.46,6.45-6.42,11.03
					h-3.98c0.84-7.47,3.8-13.5,8.86-18.08c5.06-4.58,11.39-6.87,18.99-6.87c7.35,0,13.53,2.35,18.54,7.05
					c5,4.7,7.51,10.67,7.51,17.9c0,10.13-6.15,20.98-18.45,32.55l-25.5,23.69h38.16c4.1,0,6.75-1.99,7.96-5.97H356.47z"/>
			</g>
		</g>
		<g>
			<defs>
				<rect id="SVGID_19_" x="5.22" y="108.42" width="189.04" height="172.08"/>
			</defs>
			<clipPath id="SVGID_20_">
				<use xlink:href="#SVGID_19_"  style="overflow:visible;"/>
			</clipPath>
			<g class="st15">
				<path class="st7" d="M119.24,258.68H81.08v-3.8h4.7c5.79,0,8.68-2.89,8.68-8.68v-62.39c0-4.22-1.57-6.33-4.7-6.33
					c-1.81,0-4.04,0.72-6.69,2.17l-1.45-3.26l22.06-9.77h3.07v79.57c0,5.79,2.77,8.68,8.32,8.68h4.16V258.68z"/>
			</g>
		</g>
		<g>
			<defs>
				<rect id="SVGID_21_" x="513.27" y="290.3" width="3.29" height="31.24"/>
			</defs>
			<clipPath id="SVGID_22_">
				<use xlink:href="#SVGID_21_"  style="overflow:visible;"/>
			</clipPath>
			<line class="st16" x1="514.91" y1="320.45" x2="514.91" y2="291.4"/>
		</g>
		<g>
			<defs>
				<rect id="SVGID_23_" x="707.68" y="290.3" width="3.29" height="31.24"/>
			</defs>
			<clipPath id="SVGID_24_">
				<use xlink:href="#SVGID_23_"  style="overflow:visible;"/>
			</clipPath>
			<line class="st17" x1="709.33" y1="320.45" x2="709.33" y2="291.4"/>
		</g>
		<g>
			<defs>
				<rect id="SVGID_25_" x="512.39" y="318.28" width="199.26" height="3.29"/>
			</defs>
			<clipPath id="SVGID_26_">
				<use xlink:href="#SVGID_25_"  style="overflow:visible;"/>
			</clipPath>
			<g class="st18">
				<defs>
					<rect id="SVGID_27_" x="-125.07" y="-187.42" width="1122.38" height="841.78"/>
				</defs>
				<clipPath id="SVGID_28_">
					<use xlink:href="#SVGID_27_"  style="overflow:visible;"/>
				</clipPath>
				<line class="st19" x1="710.56" y1="319.92" x2="513.48" y2="319.92"/>
			</g>
		</g>
		<g>
			<defs>
				<rect id="SVGID_29_" x="-125.07" y="-187.42" width="1122.38" height="841.78"/>
			</defs>
			<clipPath id="SVGID_30_">
				<use xlink:href="#SVGID_29_"  style="overflow:visible;"/>
			</clipPath>
			<g class="st20">
				<path class="st5" d="M475.91,344.33c0.75,0,1.23-0.02,1.64-0.07c-0.04,0.37-0.04,0.55-0.07,1.03c-0.11,3.64-0.48,6.07-1.08,6.95
					c-0.39,0.61-0.94,0.83-2.02,0.83c-0.7,0-1.45-0.04-2.3-0.11c-0.04-0.61-0.09-0.88-0.26-1.45c0.94,0.13,1.82,0.22,2.46,0.22
					c0.72,0,1.01-0.15,1.18-0.68c0.39-1.23,0.61-3.05,0.66-5.53h-2.92c-0.64,0-1.1,0.02-1.49,0.04c0.42-1.82,0.66-3.77,0.72-6.16
					c0.55,0.07,0.9,0.09,2.11,0.09h1.69v-3.57h-2.57c-0.86,0-1.51,0.02-2.02,0.09v-1.45c0.46,0.09,1.07,0.13,2.04,0.13h2.48
					c0.53,0,1.01-0.02,1.45-0.07c-0.04,0.48-0.07,0.94-0.07,1.53v2.89c0,0.66,0.02,1.27,0.07,1.73c-0.46-0.04-0.94-0.07-1.56-0.07
					h-2.32c-0.07,0.77-0.31,2.72-0.46,3.6H475.91z M483.6,339.48c-0.92,0.07-1.45,0.11-2.87,0.18c-1.45,0.07-1.84,0.09-2.28,0.18
					l-0.22-1.43c0.35,0.02,0.68,0.04,1.01,0.04c0.2,0,0.2,0,0.96-0.02c1.14-1.78,1.8-3.07,2.35-4.67l1.51,0.4
					c-1.05,2.06-1.49,2.85-2.43,4.23c2.11-0.07,4.21-0.22,6.25-0.44c-0.79-0.99-1.16-1.4-2.21-2.5l1.03-0.64
					c1.62,1.62,2.79,3,4.21,4.96l-1.12,0.85c-0.53-0.79-0.66-0.99-1.1-1.6c-1.51,0.18-2.78,0.29-3.79,0.37v2.41h3.29
					c0.77,0,1.16-0.02,1.71-0.09c-0.07,0.44-0.09,0.81-0.09,1.45v2.7c0,0.72,0.02,1.16,0.09,1.69c-0.61-0.07-1.1-0.09-1.84-0.09
					h-3.16v3.33c1.49-0.2,2.19-0.31,3.4-0.53c-0.48-0.7-0.66-0.94-1.29-1.73l1.05-0.57c1.51,1.97,2.26,3.09,3.22,4.85l-1.18,0.61
					c-0.44-0.9-0.59-1.21-1.16-2.13c-3.46,0.66-5.88,0.99-10.13,1.38c-0.33,0.02-0.48,0.07-0.77,0.11l-0.29-1.51
					c0.26,0.02,0.39,0.02,0.59,0.02c0.9,0,3.25-0.15,5.26-0.35v-3.49h-2.78c-0.88,0-1.34,0.02-1.95,0.09
					c0.07-0.53,0.09-1.01,0.09-1.75v-2.46c0-0.66-0.02-1.14-0.09-1.62c0.53,0.07,1.03,0.09,1.91,0.09h2.83V339.48z M480.2,342.97
					v3.33h3.4v-3.33H480.2z M484.9,346.3h3.64v-3.33h-3.64V346.3z"/>
				<path class="st5" d="M496.84,336.32c-0.11,0.68-0.15,1.4-0.15,2.61c0,2.41,0.24,5.42,0.57,6.82c0.48,2.24,1.38,3.75,2.21,3.75
					c0.39,0,0.77-0.37,1.1-1.1c0.5-1.1,0.85-2.26,1.14-3.75c0.48,0.57,0.68,0.77,1.29,1.25c-1.07,3.84-2.08,5.31-3.64,5.31
					c-1.23,0-2.37-1.23-3.11-3.33c-0.77-2.08-1.07-4.89-1.18-10.28c-0.02-0.83-0.02-0.9-0.07-1.29L496.84,336.32z M507.43,337.49
					c1.42,1.69,2.32,3.14,3.13,5c0.83,1.84,1.25,3.4,1.64,5.85l-1.56,0.64c-0.39-4.08-2-7.83-4.56-10.81L507.43,337.49z"/>
				<path class="st5" d="M522.82,336.32c-0.15-0.92-0.26-1.34-0.48-1.86l1.73-0.28c0.02,0.53,0.07,0.94,0.24,1.86l0.44,2.41
					l4.96-0.77c0.96-0.15,1.42-0.26,1.93-0.44l0.31,1.58c-0.59,0.07-0.59,0.07-1.95,0.28l-4.98,0.77l0.83,4.43l5.44-0.88
					c0.99-0.18,1.62-0.31,2.17-0.5l0.31,1.62c-0.44,0.02-0.57,0.04-0.96,0.11c-0.09,0-0.31,0.04-0.68,0.11
					c-0.24,0.04-0.35,0.07-0.5,0.09l-5.5,0.88l0.9,4.85c0.2,1.14,0.26,1.4,0.48,2.08l-1.75,0.33c-0.02-0.59-0.11-1.14-0.26-2.1
					l-0.9-4.91l-5.88,0.94c-1.25,0.2-1.38,0.22-2.1,0.44l-0.29-1.67c0.72,0,1.27-0.04,2.17-0.2l5.83-0.94l-0.79-4.43l-4.52,0.7
					c-0.9,0.15-1.62,0.31-2.19,0.48l-0.31-1.67c0.72-0.02,1.29-0.07,2.28-0.22l4.47-0.7L522.82,336.32z"/>
				<path class="st5" d="M552.11,350.56c1.03,0,1.4-0.02,1.97-0.13v1.6c-0.53-0.09-1.1-0.11-2-0.11h-10.74c-0.94,0-1.47,0.02-2,0.11
					v-1.6c0.59,0.11,0.94,0.13,1.97,0.13h6.67c0.5-2.35,1.01-5.57,1.21-7.54h-5.85c-1.25,0-1.36,0-1.93,0.09v-1.58
					c0.53,0.09,1.1,0.13,1.95,0.13h5.88c0.53,0,0.72-0.02,1.03-0.15l0.72,0.64c-0.18,0.37-0.2,0.44-0.35,1.53
					c-0.5,3.49-0.68,4.58-1.14,6.89H552.11z"/>
				<path class="st5" d="M559.69,342.53c0.64,0.11,1.23,0.13,2.72,0.13h12.74c1.62,0,1.97-0.02,2.65-0.11v1.78
					c-0.7-0.07-1.21-0.09-2.68-0.09h-12.72c-1.6,0-2.06,0.02-2.72,0.09V342.53z"/>
				<path class="st5" d="M591.83,342.33c-0.02,0.66-0.11,1.47-0.24,2.32c-0.37,2.59-1.29,4.39-2.96,5.79
					c-0.96,0.83-2.06,1.45-3.86,2.17c-0.31-0.66-0.48-0.9-1.03-1.43c2.87-0.92,4.65-2.32,5.55-4.32c0.5-1.1,0.83-2.83,0.88-4.54
					h-5.94c-1.14,0-1.78,0.02-2.52,0.11v-1.62c0.77,0.11,1.29,0.13,2.54,0.13h12.83c1.25,0,1.78-0.02,2.54-0.13v1.62
					c-0.75-0.09-1.38-0.11-2.52-0.11H591.83z M583.91,335.38c0.72,0.13,1.16,0.15,2.52,0.15h8.53c1.36,0,1.8-0.02,2.52-0.15v1.67
					c-0.66-0.09-1.23-0.11-2.5-0.11h-8.57c-1.27,0-1.84,0.02-2.5,0.11V335.38z"/>
				<path class="st5" d="M618.29,339.26c-0.24,0.18-0.29,0.24-0.53,0.5c-1.18,1.23-2.28,2.21-4.41,3.86v7.41
					c0,0.86,0.02,1.38,0.11,1.93h-1.71c0.07-0.53,0.09-0.81,0.09-1.91v-6.51c-2.15,1.36-4.01,2.19-6.73,3.03
					c-0.22-0.57-0.35-0.79-0.77-1.32c2.19-0.59,3.49-1.07,5.09-1.93c2.41-1.23,4.41-2.7,6.27-4.56c0.66-0.64,0.9-0.92,1.23-1.43
					L618.29,339.26z"/>
				<path class="st5" d="M634.03,334.44c-0.2,0.29-0.2,0.29-0.48,0.9c-0.57,1.18-0.77,1.56-1.01,1.95c0.29-0.07,0.29-0.07,6.62-0.18
					c0.77,0,0.83-0.02,1.14-0.15l0.94,0.92c-0.2,0.26-0.2,0.28-0.44,1.07c-0.92,3.09-2.52,6.07-4.39,8.24
					c-2.02,2.3-4.43,4.03-7.63,5.48c-0.35-0.64-0.53-0.85-1.1-1.29c3.31-1.36,5.63-3.03,7.74-5.55c1.69-2.04,3-4.6,3.77-7.35
					l-7.39,0.13c-1.34,2.15-3.09,4.08-5.24,5.7c-0.37-0.55-0.59-0.75-1.23-1.14c2.32-1.51,3.99-3.33,5.5-6.01
					c0.83-1.45,1.27-2.43,1.38-3.2L634.03,334.44z"/>
				<path class="st5" d="M651.46,335.25c-0.09,0.55-0.09,0.55-0.13,1.89c-0.18,5.94-0.35,7.56-1.18,9.78
					c-0.75,2.04-1.8,3.51-3.79,5.42c-0.44-0.57-0.66-0.77-1.32-1.18c1.8-1.43,2.98-3,3.71-5.04c0.68-1.91,0.99-4.78,0.99-9.41
					c0-0.79-0.02-1.05-0.09-1.56L651.46,335.25z M656.9,335.01c-0.11,0.53-0.13,0.92-0.13,1.93l-0.13,13.24
					c1.82-0.68,2.94-1.38,4.08-2.54c1.21-1.25,2.06-2.7,2.59-4.39c0.46,0.59,0.64,0.79,1.23,1.27c-1.08,2.52-2.52,4.34-4.41,5.64
					c-0.96,0.66-1.84,1.1-3.13,1.6c-0.39,0.15-0.39,0.15-0.7,0.26c-0.26,0.11-0.31,0.13-0.5,0.24l-0.88-1.01
					c0.13-0.37,0.15-0.55,0.15-1.49l0.13-12.83c0-1.43,0-1.43-0.09-1.95L656.9,335.01z"/>
				<path class="st5" d="M673.62,337.09c0.72-1.53,0.99-2.3,1.05-3l1.75,0.31c-0.2,0.28-0.2,0.28-0.57,1.18
					c-0.29,0.7-0.57,1.29-0.68,1.49c0.26-0.02,0.26-0.02,0.46-0.02c3.51-0.18,5.7-0.44,6.91-0.83l0.13,1.49
					c-0.35,0.02-0.48,0.04-0.88,0.11c-2.28,0.31-4.58,0.48-7.24,0.57c-0.66,1.29-1.21,2.17-1.97,3.11
					c-0.22,0.26-0.66,0.77-0.75,0.83c-0.15,0.11-0.26,0.2-0.29,0.22c0,0.02-0.02,0.02-0.02,0.02c0,0.02,0,0.02,0,0.02
					c0.02,0.04,0.02,0.04,0.04,0.07c0.79-0.61,0.79-0.61,1.01-0.77c1.01-0.7,2.17-1.07,3.31-1.07c1.62,0,2.61,0.81,2.89,2.43
					c1.6-0.64,2.85-1.1,3.82-1.45c1.07-0.37,1.14-0.39,1.49-0.64l0.7,1.53c-1.14,0.2-3.11,0.85-5.85,1.93
					c0.04,0.57,0.04,0.79,0.04,1.34c0,0.29,0,0.77-0.02,1.21c-0.02,0.48-0.02,0.79-0.02,0.99c0,0.31,0,0.48,0.04,0.79l-1.49,0.02
					c0.07-0.48,0.13-1.82,0.13-3.16c0-0.35,0-0.4-0.02-0.66c-2.98,1.4-4.12,2.43-4.12,3.75c0,1.45,1.36,2.08,4.45,2.08
					c2.17,0,4.6-0.35,5.85-0.86l0.2,1.69c-0.33,0.02-0.44,0.04-0.88,0.11c-1.73,0.28-3.64,0.44-5.33,0.44
					c-3.93,0-5.83-1.12-5.83-3.38c0-1.21,0.75-2.35,2.24-3.46c0.75-0.55,1.8-1.12,3.27-1.75c-0.18-1.21-0.7-1.73-1.73-1.73
					c-1.38,0-3.11,0.81-4.89,2.32c-0.86,0.72-1.34,1.23-1.69,1.82l-1.23-1.23c1.51-1.16,3.33-3.46,4.91-6.27
					c0.07-0.11,0.07-0.11,0.2-0.33c-0.09,0.02-0.31,0.04-0.42,0.04c-0.35,0-2.41-0.04-3.22-0.07c-0.11,0-0.29,0-0.35,0
					c-0.2,0-0.24,0-0.48,0.02l0.02-1.51c0.79,0.15,2.46,0.24,4.69,0.24H673.62z"/>
				<path class="st5" d="M689.49,339.22c0.66-0.04,0.66-0.04,4.56-0.92c2.43-0.55,4.54-0.81,6.36-0.81c4.01,0,6.56,2.13,6.56,5.48
					c0,2.74-1.62,5.04-4.56,6.47c-2.02,0.96-3.86,1.38-7.26,1.67c-0.17-0.77-0.29-1.03-0.68-1.62c2.46-0.09,4.43-0.39,6.1-1.01
					c3-1.1,4.69-3.07,4.69-5.53c0-2.46-1.82-3.95-4.8-3.95c-2.28,0-5.15,0.5-8.95,1.56c-0.92,0.26-1.21,0.35-1.58,0.53
					L689.49,339.22z"/>
				<path class="st5" d="M724.61,335.32c-0.24,0.2-0.42,0.35-2.7,2.54c-1.1,1.03-2.28,2.02-5.04,4.14c-0.81,0.61-0.96,0.79-0.96,1.1
					c0,0.4,0.18,0.55,1.95,1.93c3.18,2.43,3.79,2.94,7.02,5.99c0.33,0.33,0.37,0.35,0.61,0.55l-1.38,1.36
					c-0.53-0.75-1.38-1.67-2.83-3c-1.47-1.36-2.35-2.08-5.55-4.58c-1.23-0.96-1.58-1.45-1.58-2.19c0-0.53,0.22-1.03,0.64-1.47
					c0.26-0.26,0.26-0.26,1.86-1.49c2.92-2.24,5.66-4.8,6.42-6.01L724.61,335.32z"/>
				<path class="st5" d="M738.97,334.26c-0.18,0.46-0.31,1.07-0.5,2.26c-0.35,2.21-0.66,4.6-0.72,5.72l0.09,0.02
					c0.04-0.18,0.04-0.18,0.15-0.64c0.26-1.21,0.7-2.28,1.34-3.27c1.23-1.89,2.67-2.83,4.39-2.83c1.42,0,2.65,0.68,3.51,1.95
					c0.92,1.36,1.32,2.98,1.32,5.33c0,3.97-1.78,6.97-5.06,8.62c-1.05,0.53-2.37,0.96-3.9,1.29c-0.26-0.66-0.39-0.9-0.88-1.49
					c2.04-0.31,3.18-0.66,4.45-1.38c2.57-1.47,3.77-3.77,3.77-7.28c0-3.53-1.23-5.57-3.33-5.57c-1.67,0-3.07,1.25-4.32,3.82
					c-0.77,1.6-1.18,3.29-1.18,4.89c0,0.09,0,0.2,0.02,0.53l-1.58,0.07c0-0.11,0-0.2,0-0.24l-0.02-0.4l-0.04-2.28
					c0-0.2,0-0.39,0-0.5c0-2.15,0.2-4.21,0.75-8.09c0.04-0.33,0.07-0.44,0.07-0.7L738.97,334.26z"/>
			</g>
			<g class="st20">
				<path class="st5" d="M483.84,367.37c1.16,1.93,1.93,3.66,2.67,6.05l-1.58,0.5c-0.64-2.19-1.49-4.28-2.57-6.05L483.84,367.37z
					 M499.3,367.15c-0.2,0.48-0.22,0.59-0.44,1.51c-0.55,2.39-1.03,3.86-1.84,5.46c-2.02,4.12-4.82,6.8-9.63,9.17
					c-0.37-0.64-0.55-0.88-1.18-1.4c2.39-0.94,4.32-2.17,6.05-3.84c2.39-2.28,4.1-5.48,4.89-9.21c0.2-0.9,0.26-1.4,0.29-2.08
					L499.3,367.15z M489.41,366.29c1.08,1.73,1.93,3.6,2.65,5.83l-1.56,0.57c-0.66-2.3-1.38-4.01-2.52-5.94L489.41,366.29z"/>
				<path class="st5" d="M521.97,368.31c-0.24,0.33-0.24,0.33-0.57,1.12c-0.59,1.47-1.64,3.07-2.81,4.3
					c-0.7,0.77-1.32,1.27-2.5,2.15c-0.44-0.5-0.61-0.64-1.32-1.05c1.54-0.94,2.35-1.6,3.2-2.61c0.75-0.88,1.32-1.8,1.75-2.85
					c0.07-0.13,0.11-0.22,0.13-0.28c-0.2,0.04-0.33,0.09-0.5,0.11l-8.64,1.45l1.93,10.52c0.18,0.92,0.29,1.43,0.48,2l-1.75,0.35
					c-0.04-0.55-0.11-1.14-0.26-1.97l-2-10.63l-2.92,0.48c-1.14,0.2-1.56,0.29-2.19,0.48l-0.29-1.69c0.77-0.02,1.34-0.09,2.24-0.22
					l2.89-0.48l-0.48-2.65c-0.24-1.27-0.24-1.27-0.44-1.8l1.8-0.26c0.02,0.57,0.04,0.85,0.22,1.73l0.5,2.72l9.52-1.56
					c0.48-0.07,0.64-0.11,0.96-0.29L521.97,368.31z"/>
				<path class="st5" d="M536.57,374.21c0,0.99-0.81,1.8-1.8,1.8c-0.99,0-1.8-0.81-1.8-1.8c0-0.99,0.81-1.8,1.8-1.8
					C535.75,372.41,536.57,373.22,536.57,374.21z"/>
				<path class="st5" d="M547.35,369.82c1.4,0.9,2.19,1.49,3.29,2.48l-0.83,1.14c-1.03-1.07-1.82-1.71-3.27-2.63L547.35,369.82z
					 M550.88,376.95c-0.72,2.5-1.34,4.01-2.37,5.99c-0.31,0.57-0.33,0.61-0.46,0.9l-1.25-1.07c0.37-0.37,0.64-0.79,1.03-1.56
					c0.85-1.67,1.36-2.96,1.97-5.09L550.88,376.95z M548.36,364.56c1.36,1.01,2.15,1.71,3.09,2.76l-0.94,1.03
					c-0.99-1.18-1.73-1.86-3.11-2.85L548.36,364.56z M553.38,381.62c0,1.27,0.02,1.82,0.13,2.41h-1.58
					c0.11-0.72,0.13-1.27,0.13-2.46v-14.03c0-1.1-0.02-1.82-0.09-2.46c0.64,0.07,1.07,0.09,1.95,0.09h2.3
					c0.83,0,1.36-0.02,1.91-0.09c-0.04,0.61-0.07,1.14-0.07,2.06v3.07c0,0.9,0.02,1.53,0.07,2.04c-0.5-0.04-1.1-0.07-2-0.07h-2.76
					V381.62z M553.36,368.13h3.49v-1.84h-3.49V368.13z M553.36,371.12h3.49v-1.93h-3.49V371.12z M556.32,374.89
					c-0.57,0-1.07,0.02-1.43,0.09v-1.27c0.5,0.09,0.96,0.11,1.49,0.11h5.22c0.59,0,1.1-0.04,1.58-0.11v1.27
					c-0.44-0.07-0.88-0.09-1.51-0.09h-2.28v1.89h1.6c0.66,0,1.12-0.02,1.51-0.09v1.25c-0.46-0.07-0.9-0.09-1.51-0.09h-1.6v2.19h2.35
					c0.66,0,1.18-0.02,1.64-0.11v1.29c-0.55-0.07-1.1-0.09-1.67-0.09h-5.5c-0.55,0-1.12,0.04-1.6,0.11v-1.32
					c0.46,0.07,1.03,0.11,1.58,0.11h2.02v-2.19h-1.45c-0.61,0-1.07,0.02-1.45,0.09v-1.25c0.42,0.07,0.83,0.09,1.45,0.09h1.45v-1.89
					H556.32z M565.99,381.99c0,1.45-0.44,1.82-2.17,1.82c-0.48,0-0.99-0.02-2-0.09c-0.07-0.48-0.15-0.81-0.4-1.4
					c1.14,0.15,1.78,0.2,2.41,0.2c0.7,0,0.83-0.11,0.83-0.61v-9.71h-3.09c-0.9,0-1.54,0.02-2.02,0.07c0.04-0.64,0.07-1.18,0.07-2.02
					v-3.09c0-0.86-0.02-1.43-0.07-2.06c0.59,0.07,1.14,0.09,2.08,0.09h2.41c0.88,0,1.45-0.02,2.04-0.09
					c-0.09,0.81-0.11,1.43-0.11,2.46V381.99z M560.86,368.13h3.84v-1.84h-3.84V368.13z M560.86,371.12h3.84v-1.93h-3.84V371.12z"/>
				<path class="st5" d="M572.47,367.01c-0.11,0.68-0.15,1.4-0.15,2.61c0,2.41,0.24,5.42,0.57,6.82c0.48,2.24,1.38,3.75,2.21,3.75
					c0.39,0,0.77-0.37,1.1-1.1c0.5-1.1,0.85-2.26,1.14-3.75c0.48,0.57,0.68,0.77,1.29,1.25c-1.07,3.84-2.08,5.31-3.64,5.31
					c-1.23,0-2.37-1.23-3.11-3.33c-0.77-2.08-1.07-4.89-1.18-10.28c-0.02-0.83-0.02-0.9-0.07-1.29L572.47,367.01z M583.06,368.18
					c1.42,1.69,2.32,3.14,3.13,5c0.83,1.84,1.25,3.4,1.64,5.85l-1.56,0.64c-0.39-4.08-2-7.83-4.56-10.81L583.06,368.18z"/>
				<path class="st5" d="M602.33,374.21c0,0.99-0.81,1.8-1.8,1.8c-0.99,0-1.8-0.81-1.8-1.8c0-0.99,0.81-1.8,1.8-1.8
					C601.52,372.41,602.33,373.22,602.33,374.21z"/>
				<path class="st5" d="M615.96,366.49c0-0.86-0.04-1.56-0.15-2.24h1.69c-0.11,0.66-0.15,1.36-0.15,2.19v2.17h0.79
					c0.68,0,1.21-0.02,1.78-0.11v1.45c-0.61-0.09-1.14-0.11-1.8-0.11h-0.77v4.47c0.81-0.24,1.29-0.42,2.59-0.92l0.02,1.27
					c-1.1,0.46-1.45,0.59-2.61,1.01v6.71c0,1.18-0.53,1.51-2.39,1.51c-0.5,0-1.01-0.02-1.62-0.07c-0.04-0.66-0.09-0.9-0.31-1.45
					c0.83,0.15,1.49,0.22,2.19,0.22c0.59,0,0.75-0.13,0.75-0.59v-5.88c-0.85,0.29-1.12,0.37-1.53,0.5c-0.66,0.18-0.96,0.29-1.4,0.46
					l-0.35-1.53c0.81-0.09,1.43-0.24,3.29-0.81v-4.91h-1.32c-0.64,0-1.21,0.02-1.8,0.11v-1.47c0.57,0.09,1.07,0.13,1.78,0.13h1.34
					V366.49z M622.26,367.26c3.57-0.5,6.69-1.38,7.94-2.24l1.1,1.23c-2.92,1.12-5.37,1.71-9.03,2.21v1.49
					c0,0.85,0.37,0.94,3.95,0.94c4.23,0,4.28-0.02,4.47-2.78c0.46,0.28,0.9,0.48,1.34,0.59c-0.22,1.78-0.5,2.52-1.16,2.96
					c-0.61,0.39-1.6,0.5-4.98,0.5c-4.25,0-4.98-0.28-4.98-1.91v-3.77c0-0.96-0.02-1.49-0.13-2.17h1.62
					c-0.09,0.59-0.13,1.18-0.13,2.1V367.26z M620.92,375.7c0-0.72-0.02-1.25-0.09-1.71c0.55,0.07,1.01,0.09,1.93,0.09h6.18
					c0.94,0,1.4-0.02,1.93-0.09c-0.07,0.42-0.09,0.96-0.09,1.73v6.18c0,1.21,0.02,1.64,0.11,2.19h-1.47v-1.21h-7.17v1.23h-1.45
					c0.09-0.59,0.11-1.07,0.11-2.17V375.7z M622.26,377.76h7.17v-2.48h-7.17V377.76z M622.26,381.68h7.17v-2.74h-7.17V381.68z"/>
				<path class="st5" d="M634.38,372.98c0.46,0.09,0.86,0.11,1.56,0.11h1.01c0.66,0,1.12-0.02,1.64-0.11
					c-0.09,0.66-0.11,1.25-0.11,2.3v4.3c0.42,0.9,0.85,1.36,1.78,1.89c0.96,0.57,2.39,0.77,5.44,0.77c3.38,0,6.14-0.15,8.75-0.46
					c-0.24,0.59-0.4,1.07-0.5,1.62c-2.39,0.09-5.04,0.15-7.08,0.15c-4.34,0-5.64-0.15-7.04-0.88c-0.79-0.42-1.34-0.92-2.1-1.95
					c-0.68,0.81-0.9,1.03-1.49,1.6c-0.35,0.31-0.44,0.39-0.81,0.75c-0.24,0.2-0.31,0.26-0.61,0.53l-0.75-1.42
					c0.81-0.37,1.97-1.34,3.11-2.57v-5.26h-1.32c-0.66,0-1.03,0.02-1.47,0.11V372.98z M635.56,364.69c1.49,1.38,2.37,2.35,3.51,3.88
					l-1.12,1.01c-1.07-1.6-1.93-2.61-3.4-3.99L635.56,364.69z M646.22,369.12c-0.81-0.64-1.93-1.32-2.92-1.84l0.99-0.7
					c1.14,0.68,1.73,1.07,2.94,1.95c1.67-0.94,2.21-1.32,3.4-2.3h-8.13c-1.01,0-1.58,0.02-2.19,0.11v-1.38
					c0.61,0.11,1.18,0.13,2.32,0.13h7.65c1.32,0,1.8-0.02,2.24-0.09l0.55,0.79c-0.2,0.13-0.29,0.2-0.55,0.42
					c-1.36,1.14-2.76,2.06-4.36,2.92H651c1.21,0,1.89-0.02,2.39-0.11c-0.07,0.61-0.09,1.4-0.09,2.7v7.24c0,1.38-0.35,1.69-1.89,1.69
					c-0.5,0-0.88,0-1.54-0.04c-0.07-0.53-0.13-0.81-0.31-1.27c0.72,0.11,1.23,0.15,1.82,0.15c0.5,0,0.61-0.09,0.61-0.61v-2.13h-4.58
					v1.38c0,1.12,0.04,1.78,0.13,2.37h-1.51c0.09-0.57,0.13-1.29,0.13-2.37v-1.38h-4.12v1.69c0,1.14,0.04,1.78,0.13,2.3h-1.56
					c0.09-0.55,0.13-1.23,0.13-2.3v-6.93c0-1.32-0.02-1.93-0.09-2.48c0.61,0.09,1.34,0.11,2.37,0.11H646.22z M642.05,370.22v2.17
					h4.12v-2.17H642.05z M642.05,375.65h4.12v-2.21h-4.12V375.65z M647.43,372.39h4.58v-2.17h-4.58V372.39z M652.01,373.44h-4.58
					v2.21h4.58V373.44z"/>
				<path class="st5" d="M662.88,364.95c-0.18,0.46-0.31,1.07-0.5,2.26c-0.35,2.21-0.66,4.6-0.72,5.72l0.09,0.02
					c0.04-0.18,0.04-0.18,0.15-0.64c0.26-1.21,0.7-2.28,1.34-3.27c1.23-1.89,2.67-2.83,4.39-2.83c1.42,0,2.65,0.68,3.51,1.95
					c0.92,1.36,1.32,2.98,1.32,5.33c0,3.97-1.78,6.97-5.06,8.62c-1.05,0.53-2.37,0.96-3.9,1.29c-0.26-0.66-0.39-0.9-0.88-1.49
					c2.04-0.31,3.18-0.66,4.45-1.38c2.57-1.47,3.77-3.77,3.77-7.28c0-3.53-1.23-5.57-3.33-5.57c-1.67,0-3.07,1.25-4.32,3.82
					c-0.77,1.6-1.18,3.29-1.18,4.89c0,0.09,0,0.2,0.02,0.53l-1.58,0.07c0-0.11,0-0.2,0-0.24l-0.02-0.4l-0.04-2.28
					c0-0.2,0-0.39,0-0.5c0-2.15,0.2-4.21,0.75-8.09c0.04-0.33,0.07-0.44,0.07-0.7L662.88,364.95z"/>
				<path class="st5" d="M685.22,367.78c0.72-1.53,0.99-2.3,1.05-3l1.75,0.31c-0.2,0.28-0.2,0.28-0.57,1.18
					c-0.29,0.7-0.57,1.29-0.68,1.49c0.26-0.02,0.26-0.02,0.46-0.02c3.51-0.18,5.7-0.44,6.91-0.83l0.13,1.49
					c-0.35,0.02-0.48,0.04-0.88,0.11c-2.28,0.31-4.58,0.48-7.24,0.57c-0.66,1.29-1.21,2.17-1.97,3.11
					c-0.22,0.26-0.66,0.77-0.75,0.83c-0.15,0.11-0.26,0.2-0.29,0.22c0,0.02-0.02,0.02-0.02,0.02c0,0.02,0,0.02,0,0.02
					c0.02,0.04,0.02,0.04,0.04,0.07c0.79-0.61,0.79-0.61,1.01-0.77c1.01-0.7,2.17-1.07,3.31-1.07c1.62,0,2.61,0.81,2.89,2.43
					c1.6-0.64,2.85-1.1,3.82-1.45c1.07-0.37,1.14-0.39,1.49-0.64l0.7,1.53c-1.14,0.2-3.11,0.85-5.85,1.93
					c0.04,0.57,0.04,0.79,0.04,1.34c0,0.29,0,0.77-0.02,1.21c-0.02,0.48-0.02,0.79-0.02,0.99c0,0.31,0,0.48,0.04,0.79l-1.49,0.02
					c0.07-0.48,0.13-1.82,0.13-3.16c0-0.35,0-0.4-0.02-0.66c-2.98,1.4-4.12,2.43-4.12,3.75c0,1.45,1.36,2.08,4.45,2.08
					c2.17,0,4.6-0.35,5.85-0.86l0.2,1.69c-0.33,0.02-0.44,0.04-0.88,0.11c-1.73,0.28-3.64,0.44-5.33,0.44
					c-3.93,0-5.83-1.12-5.83-3.38c0-1.21,0.75-2.35,2.24-3.46c0.75-0.55,1.8-1.12,3.27-1.75c-0.18-1.21-0.7-1.73-1.73-1.73
					c-1.38,0-3.11,0.81-4.89,2.32c-0.86,0.72-1.34,1.23-1.69,1.82l-1.23-1.23c1.51-1.16,3.33-3.46,4.91-6.27
					c0.07-0.11,0.07-0.11,0.2-0.33c-0.09,0.02-0.31,0.04-0.42,0.04c-0.35,0-2.41-0.04-3.22-0.07c-0.11,0-0.29,0-0.35,0
					c-0.2,0-0.24,0-0.48,0.02l0.02-1.51c0.79,0.15,2.46,0.24,4.69,0.24H685.22z"/>
				<path class="st5" d="M702.84,366.6c-0.9,0-1.32,0.02-1.89,0.11v-1.51c0.64,0.09,1.21,0.13,2,0.13h6.88
					c0.81,0,1.34-0.04,1.97-0.13v1.51c-0.57-0.09-0.94-0.11-1.86-0.11h-0.48v5.44h0.68c0.94,0,1.38-0.02,1.93-0.11v1.54
					c-0.55-0.09-1.01-0.11-1.93-0.11h-0.68v8.22c0,1.03,0.04,1.67,0.13,2.28l-1.62,0.02c0.11-0.72,0.13-1.29,0.13-2.28v-8.24h-3.31
					c-0.07,1.8-0.15,2.81-0.37,4.01c-0.5,2.65-1.45,4.56-3.27,6.6c-0.37-0.44-0.59-0.61-1.16-0.99c2.39-2.3,3.35-5.02,3.44-9.63
					h-0.9c-0.81,0-1.42,0.04-2,0.13v-1.58c0.55,0.09,1.14,0.13,2,0.13h0.9v-5.44H702.84z M704.79,372.04h3.31v-5.44h-3.31V372.04z
					 M720.6,376.64c-0.48,0.46-0.48,0.46-1.51,1.64c-0.92,1.07-2.37,2.37-3.73,3.35c-1.27,0.92-2.28,1.51-3.88,2.28
					c-0.24-0.46-0.46-0.79-0.85-1.27c2.67-1.07,5.02-2.72,7.17-4.98c0.64-0.68,1.27-1.54,1.56-2.08L720.6,376.64z M719.07,365.41
					c-0.26,0.22-0.44,0.4-1.14,1.05c-2.17,2.04-3.66,3.14-5.81,4.23c-0.26-0.5-0.46-0.81-0.88-1.25c1.93-0.83,3.44-1.86,5.07-3.38
					c0.88-0.83,1.21-1.18,1.49-1.62L719.07,365.41z M719.86,370.96c-0.31,0.24-0.5,0.42-0.92,0.86c-2.06,2.15-4.19,3.75-6.75,5.06
					c-0.31-0.59-0.5-0.88-0.86-1.29c2.13-0.9,3.77-1.97,5.63-3.73c0.75-0.7,1.32-1.36,1.67-1.93L719.86,370.96z"/>
				<path class="st5" d="M740.24,371.55c-0.07,0.11-0.29,0.59-0.66,1.47c-1.25,2.92-1.67,3.71-2.92,5.35
					c0.68,1.38,1.23,2.08,2.21,2.92c0.4,0.31,0.75,0.5,0.94,0.5c0.35,0,0.72-1.14,0.99-3.16c0.46,0.46,0.79,0.72,1.18,0.96
					c-0.29,1.45-0.46,2.04-0.79,2.67c-0.35,0.7-0.79,1.05-1.36,1.05c-0.57,0-1.45-0.5-2.3-1.36c-0.66-0.64-1.25-1.45-1.82-2.46
					c-1.8,1.91-3.55,3.18-6.07,4.36c-0.35-0.53-0.57-0.75-1.07-1.12c2.74-1.1,4.74-2.48,6.51-4.54c-1.01-2.35-1.64-5.46-1.86-9.12
					h-7.72c0,1.91-0.02,2.65-0.04,3.57h4.19c0.79,0,1.16-0.02,1.64-0.09c-0.07,0.46-0.07,0.46-0.15,2.46
					c-0.13,2.48-0.35,4.08-0.66,4.71c-0.33,0.68-0.81,0.88-2.04,0.88c-0.79,0-1.32-0.04-2.3-0.2c-0.04-0.57-0.09-0.9-0.26-1.43
					c1.21,0.26,1.86,0.35,2.59,0.35s0.9-0.2,1.05-1.16c0.15-0.92,0.26-2.57,0.29-4.3h-4.39c-0.13,2.81-0.31,4.43-0.7,6.05
					c-0.37,1.56-0.77,2.5-1.67,3.84c-0.39-0.46-0.7-0.72-1.16-0.99c0.81-1.14,1.23-2.06,1.54-3.29c0.48-1.97,0.72-4.93,0.72-9.21
					c0-1.47-0.02-1.82-0.13-2.57c0.77,0.09,1.56,0.11,2.68,0.11h6.47c-0.09-2.7-0.11-3.05-0.22-3.55h1.69
					c-0.09,0.44-0.11,0.96-0.11,1.8c0,0.4,0,0.72,0.04,1.75h4.78c1.23,0,1.8-0.02,2.35-0.13v1.49c-0.68-0.09-1.29-0.11-2.46-0.11
					h-4.63c0.15,3.14,0.64,5.79,1.45,7.89c1.32-1.89,2.46-4.43,2.7-6.03L740.24,371.55z M739.04,367.5
					c-1.23-1.12-1.69-1.47-3.16-2.32l0.94-0.77c1.45,0.83,1.71,1.01,3.14,2.17L739.04,367.5z"/>
			</g>
		</g>
		<g>
			<defs>
				<rect id="SVGID_31_" x="92.75" y="90.42" width="5.48" height="31.24"/>
			</defs>
			<clipPath id="SVGID_32_">
				<use xlink:href="#SVGID_31_"  style="overflow:visible;"/>
			</clipPath>
			<line class="st21" x1="95.49" y1="91.51" x2="95.49" y2="120.56"/>
		</g>
		<g>
			<defs>
				<rect id="SVGID_33_" x="319.67" y="90.42" width="5.48" height="31.24"/>
			</defs>
			<clipPath id="SVGID_34_">
				<use xlink:href="#SVGID_33_"  style="overflow:visible;"/>
			</clipPath>
			<line class="st22" x1="322.41" y1="91.51" x2="322.41" y2="120.56"/>
		</g>
		<g>
			<defs>
				<rect id="SVGID_35_" x="92.73" y="89.3" width="232.22" height="5.48"/>
			</defs>
			<clipPath id="SVGID_36_">
				<use xlink:href="#SVGID_35_"  style="overflow:visible;"/>
			</clipPath>
			<line class="st23" x1="323.85" y1="92.04" x2="93.82" y2="92.04"/>
		</g>
		<g>
			<defs>
				<rect id="SVGID_37_" x="463.55" y="192.68" width="116.1" height="100.84"/>
			</defs>
			<clipPath id="SVGID_38_">
				<use xlink:href="#SVGID_37_"  style="overflow:visible;"/>
			</clipPath>
			<g class="st24">
				<path class="st7" d="M533.57,245.74c0,4.05-1.5,7.37-4.5,9.94c-2.84,2.37-6.34,3.55-10.5,3.55c-1.84,0-3.55-0.26-5.13-0.79
					c-2.21-0.74-3.31-1.81-3.31-3.24c0-1.42,0.68-2.13,2.05-2.13c0.89,0,2.3,0.63,4.22,1.89c1.92,1.26,3.67,1.89,5.25,1.89
					c2.16,0,3.93-0.76,5.33-2.29c1.39-1.53,2.09-3.37,2.09-5.52c0-3.21-1.32-5.65-3.95-7.34c-2.16-1.47-4.92-2.29-8.29-2.45
					l0.16-1.66c2.58-0.21,4.79-1.1,6.63-2.68c2.05-1.68,3.08-3.79,3.08-6.31c0-1.79-0.68-3.26-2.05-4.42
					c-1.37-1.16-2.95-1.74-4.74-1.74c-3.31,0-5.6,1.5-6.87,4.5l-1.34-0.71c1.63-5.37,5.1-8.02,10.42-7.97c2.68,0,4.94,0.8,6.79,2.41
					c1.84,1.61,2.76,3.72,2.76,6.35c0,3.74-1.97,6.55-5.92,8.44C530.97,237.27,533.57,240.69,533.57,245.74z"/>
			</g>
		</g>
	</g>
</g>
</svg>
