<?xml version="1.0" encoding="utf-8"?>
<!-- Generator: Adobe Illustrator 24.3.0, SVG Export Plug-In . SVG Version: 6.00 Build 0)  -->
<svg version="1.1" id="レイヤー_1" xmlns="http://www.w3.org/2000/svg" xmlns:xlink="http://www.w3.org/1999/xlink" x="0px"
	 y="0px" viewBox="0 0 320 30" style="enable-background:new 0 0 320 30;" xml:space="preserve">
<style type="text/css">
	.st0{fill:#040000;}
</style>
<path id="パス_209" class="st0" d="M24.7,1.97H0.82c-0.11,0.01-0.19,0.09-0.19,0.2L0.36,7.76h0.19c0.17-0.79,0.4-1.58,0.7-2.33
	C1.5,4.74,1.93,4.14,2.5,3.68c0.55-0.4,1.2-0.63,1.88-0.66c0.66-0.06,1.5-0.09,2.49-0.09H10c0.15,0,0.3,0.02,0.45,0.06
	c0.16,0.05,0.3,0.13,0.42,0.25c0.12,0.13,0.21,0.29,0.26,0.47c0.05,0.21,0.08,0.44,0.07,0.66v25.15c0,0.1,0.07,0.18,0.17,0.19
	c0.99-0.01,1.98-0.1,2.96-0.26V4.37c0-0.22,0.02-0.44,0.08-0.66c0.05-0.18,0.14-0.34,0.26-0.47c0.12-0.12,0.26-0.2,0.42-0.25
	c0.15-0.04,0.3-0.06,0.45-0.06h3.13c1,0,1.82,0.03,2.49,0.09c0.67,0.04,1.32,0.27,1.87,0.66c0.57,0.46,1,1.06,1.25,1.74
	c0.3,0.76,0.53,1.54,0.7,2.33h0.2l-0.27-5.59C24.9,2.06,24.82,1.97,24.7,1.97 M79,1.33c-0.07,0-0.32,0.02-0.68,0.05
	s-0.84,0.08-1.41,0.14s-1.2,0.16-1.93,0.27c-0.57,0.08-1.18,0.19-1.8,0.31l0.02,0.21c0.17-0.02,0.34-0.02,0.51-0.02
	c0.3,0,0.6,0.04,0.89,0.12c0.3,0.09,0.58,0.26,0.8,0.48c0.24,0.26,0.42,0.57,0.51,0.91c0.11,0.51,0.16,1.04,0.15,1.56v24.14
	c0,0.1,0.07,0.18,0.16,0.19c0.99-0.01,1.98-0.1,2.96-0.26V1.53C79.19,1.43,79.11,1.34,79,1.33C79,1.33,79,1.33,79,1.33 M83.29,13.33
	L94.71,1.85c-0.08,0-0.18,0-0.28,0c-0.24,0.01-0.52,0.02-0.8,0.04s-0.56,0.04-0.83,0.08C92.56,2,92.33,2.05,92.11,2.11
	c-0.31,0.1-0.59,0.29-0.79,0.55L80.46,14.8l11.51,15.03c0.08,0.14,0.24,0.21,0.4,0.2c0.1,0,0.31-0.01,0.64-0.01s0.67-0.03,1.07-0.05
	s0.79-0.06,1.18-0.1c0.35-0.04,0.64-0.07,0.84-0.1L83.34,13.38L83.29,13.33z M113.2,1.33c-0.07,0-0.32,0.02-0.68,0.05
	s-0.84,0.08-1.41,0.14s-1.2,0.16-1.93,0.27c-0.57,0.08-1.18,0.19-1.81,0.31l0.02,0.21c0.17-0.02,0.34-0.02,0.51-0.02
	c0.3,0,0.6,0.04,0.89,0.12c0.31,0.09,0.58,0.26,0.8,0.48c0.24,0.26,0.42,0.57,0.51,0.91c0.11,0.42,0.16,0.85,0.16,1.29v24.42
	c0,0.1,0.07,0.18,0.16,0.19c0.99-0.01,1.98-0.1,2.96-0.26V1.52C113.39,1.42,113.31,1.33,113.2,1.33
	C113.21,1.32,113.2,1.32,113.2,1.33 M48.4,1.66c-8.02,0-12.33,6.36-12.33,14.21s4.32,14.2,12.33,14.2s12.33-6.36,12.33-14.2
	S56.41,1.66,48.4,1.66 M48.82,29.19c-5.66,0.22-9.17-5.62-9.39-12.97s2.91-13.45,8.57-13.68s9.17,5.62,9.39,12.97
	S54.47,28.97,48.82,29.19 M139.93,1.66c-8.01,0-12.33,6.36-12.33,14.21s4.32,14.2,12.33,14.2s12.33-6.36,12.33-14.2
	S147.94,1.66,139.93,1.66 M140.35,29.19c-5.66,0.22-9.17-5.62-9.4-12.97s2.92-13.45,8.57-13.68s9.16,5.62,9.4,12.97
	S146,28.97,140.35,29.19"/>
<g id="グループ_164" transform="translate(167.667 0.001)">
	<path id="パス_210" class="st0" d="M6.88,30.07c0.17-2.37,0.2-4.14,0.2-4.21V12.85c-4.27,2.76-9.01,4.71-13.99,5.74l-0.57-1.47
		c9.02-2.14,15.9-6.28,22.55-15.3l2.31,1.47c0.07,0.07,0.36,0.27,0.36,0.47c0,0.13-0.1,0.23-0.4,0.3c-0.26,0.08-0.5,0.22-0.7,0.4
		c-2.16,2.47-4.55,4.72-7.15,6.71v14.56c0,1.03,0.14,3.47,0.2,4.34L6.88,30.07z"/>
	<path id="パス_211" class="st0" d="M27.8,26.9c2.52-0.3,4.99-0.88,7.38-1.73c3.06-1.1,5.94-2.64,8.55-4.58
		c3.75-2.75,6.71-6.44,8.59-10.69l1.23,0.97c-1.7,3.61-5.91,12.69-19.11,17.21c-0.84,0.3-4.81,1.37-5.28,1.7L27.8,26.9z
		 M37.72,12.36c-2.97-3.77-5.15-5.34-9.15-6.68l0.97-1.4c3.84,1.13,7.41,3,10.52,5.51L37.72,12.36z"/>
	<path id="パス_212" class="st0" d="M61.63,8.76c1.8,0.2,4.11,0.3,5.15,0.3h5.28c0.07-0.94,0.07-1.97,0.07-2.91
		c0.01-1.48-0.07-2.97-0.23-4.44l2.61,0.2c0.4,0.04,0.9,0.07,0.9,0.34c0,0.1,0,0.2-0.23,0.5c-0.19,0.17-0.3,0.41-0.33,0.67
		c0,1.58-0.04,3.37-0.2,5.65h6.14c1.07,0,4.35-0.13,6.18-0.34c-0.17,1.57-0.17,2.81-0.17,2.81c0.06,4.04-0.34,8.08-1.2,12.03
		c-1.04,4.24-2.24,5.81-3.61,5.81c-0.83,0-2.47-0.7-6.11-2.54l0.7-1.37c1.35,0.78,2.82,1.34,4.34,1.67c1,0,1.57-1.87,1.77-2.61
		c1.43-4.88,1.54-9.29,1.58-13.93h-9.76c-0.67,6.25-1.8,9.99-4.88,13.53C66.7,27.5,64,28.47,60.8,29.5l-0.6-1.57
		c2.22-0.3,4.29-1.29,5.91-2.84c4.94-4.54,5.54-10.92,5.88-14.49h-5.21c-1.41,0-3.97,0.17-5.15,0.3L61.63,8.76z"/>
	<path id="パス_213" class="st0" d="M101.09,27.3c3.07-0.01,6.08-0.77,8.79-2.21c2.49-1.4,4.53-3.47,5.91-5.98
		c1.07-2.08,1.85-4.29,2.34-6.58c0-0.2-0.17-0.2-0.27-0.2h-16.93c-1.24,0-3.55,0.13-5.18,0.3v-2.14c1.57,0.17,4.11,0.3,5.18,0.3
		h14.3c1.5-0.05,2.99-0.2,4.48-0.44l1.5,1.54c-0.07,0.13-0.1,0.2-0.17,0.33c-0.2,0.44-1.07,3.41-1.3,4.04
		c-3.97,11.39-13.66,12.19-18.37,12.56L101.09,27.3z M99.51,3.55c1.77,0.2,4.28,0.3,5.18,0.3h7.85c1.17,0,3.74-0.13,5.18-0.3v2.14
		c-1.8-0.2-4.14-0.3-5.18-0.3h-7.85c-1.2,0-3.58,0.13-5.18,0.3V3.55z"/>
	<path id="パス_214" class="st0" d="M150.62,28.91c-2.86-2.03-6.02-3.6-9.35-4.68c-3.65-1.25-7.44-2.04-11.29-2.37l0.27-1.44
		c7.54,0.46,14.91,2.46,21.64,5.88L150.62,28.91z M148.41,8.57c-5.18-2-9.55-2.67-16.43-2.71l0.1-1.51
		c5.79-0.14,11.57,0.4,17.24,1.61L148.41,8.57z M147.41,17.52c-4.55-2.27-9.49-3.64-14.56-4.04l0.2-1.43
		c5.19,0.37,10.31,1.36,15.27,2.94L147.41,17.52z"/>
</g>
</svg>
